<?xml version="1.0" encoding="UTF-8"?>
<svg version="1.1" xmlns="http://www.w3.org/2000/svg" width="440" height="550">
<path d="M0 0 C1.30376601 -0.10104169 1.30376601 -0.10104169 2.63387072 -0.20412463 C3.58490691 -0.27351648 4.5359431 -0.34290833 5.51579857 -0.41440296 C7.03807755 -0.52786956 7.03807755 -0.52786956 8.59110963 -0.64362842 C12.00685772 -0.89423766 15.42310754 -1.13656658 18.83962059 -1.37651539 C20.03625832 -1.46117746 21.23289604 -1.54583954 22.46579552 -1.63306713 C45.70362262 -3.25558908 68.95197208 -4.2947093 92.2321078 -5.07750342 C96.08026591 -5.20728609 99.9282484 -5.34171922 103.77614403 -5.47905445 C104.92429895 -5.51991356 104.92429895 -5.51991356 106.09564893 -5.5615981 C116.75388037 -5.95072993 127.36853682 -6.593289 137.99880391 -7.45263454 C200.82171836 -12.52404994 259.97000454 -11.93656457 310.58107425 30.46446882 C351.5749395 65.59689862 372.31185344 105.26062051 376.67970662 159.06769552 C379.6845165 199.64548978 377.70146935 240.44690367 375.4542582 281.00876623 C374.61647775 296.30850058 374.06512947 311.60035896 373.69875145 326.91840649 C373.67259897 328.00857951 373.64644649 329.09875252 373.61950151 330.22196109 C373.48950059 335.69698935 373.36375462 341.17210636 373.23965991 346.64727128 C372.48208655 379.7694228 371.42492508 412.87319174 369.7988013 445.96454465 C369.67373616 448.53611684 369.55323772 451.10786705 369.43387032 453.67970943 C369.24839315 457.64955347 369.04901739 461.61845028 368.83782753 465.58700769 C368.76320367 467.01850584 368.69252528 468.4502165 368.62627945 469.88212682 C367.98486165 483.55216268 365.59413639 493.26853748 355.27467918 502.66913891 C348.75082348 507.97790841 342.19333063 510.54050548 333.81025219 510.55056667 C332.60955021 510.55440782 331.40884822 510.55824896 330.17176133 510.56220651 C328.83772514 510.56142627 327.50368901 510.56054749 326.16965294 510.5595808 C324.7536828 510.56216459 323.3377134 510.56517779 321.921745 510.5685842 C318.02601287 510.57665597 314.13029916 510.57844388 310.23455966 510.57918167 C306.03468622 510.58103193 301.83482236 510.58857916 297.63495445 510.59531689 C288.44893089 510.60890224 279.26291168 510.61492531 270.07687974 510.61932755 C264.3412544 510.62208976 258.60563076 510.6263271 252.87000656 510.63083172 C236.99046274 510.64302491 221.11092028 510.65332396 205.23137188 510.65670681 C204.21491815 510.65692638 203.19846442 510.65714594 202.15120907 510.65737216 C201.13231849 510.65759044 200.11342792 510.65780872 199.06366187 510.65803361 C196.99899121 510.65847708 194.93432055 510.65892364 192.86964989 510.65937328 C191.33342686 510.65970543 191.33342686 510.65970543 189.76616903 510.66004428 C173.17290971 510.66399192 156.57969432 510.68144469 139.98645196 510.70473281 C122.95134318 510.72844811 105.91625643 510.74090875 88.88113087 510.74207473 C79.31619162 510.74299142 69.7513096 510.74874212 60.18638611 510.76689434 C52.04114657 510.78229777 43.89598194 510.78741437 35.75073061 510.77915624 C31.59570966 510.77525053 27.44083955 510.77617544 23.28583717 510.79021358 C19.47911775 510.80295726 15.67266242 510.801751 11.86594333 510.78962287 C9.84272303 510.78674276 7.81949813 510.79859815 5.79631406 510.81104493 C-6.20086222 510.74590785 -14.43267465 508.22495246 -23.04172707 499.75507641 C-29.84620339 492.28550089 -32.50648521 484.86135104 -32.48174858 474.86180115 C-32.48380121 474.09336049 -32.48585385 473.32491982 -32.48796868 472.53319308 C-32.4936495 469.94314186 -32.4921801 467.35314364 -32.49076271 464.76308727 C-32.49334573 462.8933893 -32.49635871 461.02369187 -32.49976611 459.15399522 C-32.50784685 454.00409087 -32.50962628 448.85420045 -32.51036358 443.70429051 C-32.51221227 438.15471244 -32.51975868 432.60514163 -32.52649879 427.05556774 C-32.54009032 414.91509261 -32.54610813 402.77462077 -32.55050945 390.6341393 C-32.55327052 383.05590733 -32.55750763 375.47767664 -32.56201363 367.89944553 C-32.57420742 346.92435609 -32.58454186 325.94926733 -32.58788872 304.9741745 C-32.58811035 303.61771898 -32.58833213 302.26126346 -32.58855407 300.90480794 C-32.58877471 299.54507576 -32.58899519 298.18534359 -32.58921552 296.82561141 C-32.58965807 294.09775404 -32.59010518 291.36989667 -32.59055519 288.6420393 C-32.59066458 287.96568909 -32.59077397 287.28933889 -32.59088668 286.59249322 C-32.59451723 264.66229671 -32.61043712 242.73213326 -32.63374555 220.80194941 C-32.65834357 197.61603727 -32.67205482 174.43014329 -32.67325664 151.24421567 C-32.67417392 138.60525783 -32.67993972 125.96634327 -32.69807625 113.32739735 C-32.71346476 102.56542008 -32.71860507 91.80349947 -32.71033815 81.0415133 C-32.70642722 75.54983023 -32.70738292 70.0582613 -32.72139549 64.56659222 C-32.73410766 59.53861497 -32.73296043 54.51083793 -32.72080478 49.48286106 C-32.71884313 47.66452645 -32.72194776 45.84617779 -32.73064914 44.02786294 C-32.79220303 30.29485688 -31.72793199 19.93441036 -21.68625832 9.72773266 C-15.41631602 4.01607289 -8.47027067 0.64544741 0 0 Z " fill="#333333" transform="translate(52.35032081604004,19.58086109161377)"/>
<path d="M0 0 C10.06143916 8.51939765 18.34693898 21.64996351 20.13671875 34.9296875 C21.31155586 51.76901946 16.89774966 67.36312053 5.88671875 80.3671875 C-4.6394409 91.2133993 -19.26890626 97.92672158 -34.42578125 98.1796875 C-49.96245958 97.96869557 -63.44133164 92.12019669 -74.6484375 81.3671875 C-85.52591493 69.39620705 -90.29181727 54.6154345 -90.140625 38.65625 C-89.05592758 24.08158328 -81.49590618 10.71103477 -70.86328125 0.9296875 C-48.8375127 -15.66115115 -22.61526406 -16.35210089 0 0 Z " fill="#3DA8F3" transform="translate(254.86328125,232.0703125)"/>
<path d="M0 0 C5.9909247 4.96644769 11.48008197 10.33846454 16.97436523 15.8449707 C17.96040077 16.8296488 18.94664838 17.81411456 19.93309021 18.79838562 C22.59194712 21.45271256 25.24766632 24.11015763 27.90266681 26.7683413 C30.68516058 29.55337741 33.47010525 32.335961 36.25465393 35.11894226 C40.9224633 39.78493721 45.58817058 44.45302631 50.25268555 49.12231445 C55.65126627 54.52635555 61.05346585 59.92675898 66.45752186 65.32532436 C71.100652 69.9639254 75.74184183 74.60446107 80.38139683 79.246638 C83.15135084 82.01815345 85.92198197 84.78898291 88.69436455 87.55806923 C91.29447124 90.15529952 93.89214297 92.75494028 96.48790932 95.35650826 C97.90081225 96.77137521 99.3161937 98.18376571 100.73162842 99.59609985 C101.5629277 100.43021896 102.39422699 101.26433807 103.25071716 102.12373352 C103.97905982 102.8524532 104.70740248 103.58117289 105.45781612 104.33197498 C107 106 107 106 107 107 C97.00285059 107.09298497 87.00580532 107.16390896 77.00831032 107.20724869 C72.36524727 107.22805746 67.72248172 107.25625132 63.07958984 107.30175781 C58.59268678 107.34545647 54.10606853 107.36918749 49.61896896 107.37950897 C47.91346127 107.38685748 46.20796785 107.40120675 44.50258255 107.42292023 C30.48353655 107.59419564 20.17142178 105.6118501 9.4375 95.9375 C2.35042745 88.67757202 -0.16369687 79.32443056 -0.11352539 69.47753906 C-0.11374443 68.3501255 -0.11374443 68.3501255 -0.1139679 67.19993591 C-0.11327262 64.72180266 -0.10549826 62.24374508 -0.09765625 59.765625 C-0.0957907 58.04498333 -0.09436744 56.32434112 -0.09336853 54.60369873 C-0.08955413 50.07947315 -0.07973302 45.55527977 -0.06866455 41.03106689 C-0.05842729 36.41264278 -0.05386595 31.79421345 -0.04882812 27.17578125 C-0.0381098 18.11717337 -0.02104629 9.05858936 0 0 Z " fill="#3DA8F3" transform="translate(313,20)"/>
</svg>
