<?xml version="1.0" encoding="UTF-8"?>
<svg version="1.1" xmlns="http://www.w3.org/2000/svg" width="1040" height="900">
<path d="M0 0 C3.71872898 0.2063747 7.44019554 0.29629368 11.1630249 0.39672852 C18.4400217 0.60989264 25.70348794 0.95002217 32.97161865 1.37329102 C33.37888184 2.11264893 33.37888184 2.11264893 33.79437256 2.86694336 C38.71523436 11.79030045 43.65996551 20.67511258 48.97161865 29.37329102 C51.21010727 33.11776973 53.43472253 36.87042804 55.65911865 40.62329102 C56.22695068 41.57719727 56.79478271 42.53110352 57.37982178 43.51391602 C60.07776667 48.06847715 62.64951329 52.61297503 64.97161865 57.37329102 C66.14315582 59.48638692 67.33187137 61.59001548 68.53411865 63.68579102 C68.87999023 64.28915283 69.22586182 64.89251465 69.58221436 65.51416016 C72.23862132 70.13443399 74.94568641 74.72386335 77.65911865 79.31079102 C83.41860352 89.05274207 88.95541182 98.91915219 94.50872803 108.77954102 C99.32960067 117.32709624 104.22876606 125.82786502 109.18255615 134.29907227 C113.45322418 141.63753458 117.67426957 149.00597376 121.78411865 156.43579102 C122.36226318 157.47413086 122.36226318 157.47413086 122.9520874 158.53344727 C123.84315657 160.14146864 124.7210168 161.7567953 125.59661865 163.37329102 C126.88645352 165.6796819 126.88645352 165.6796819 129.97161865 166.37329102 C131.79141627 166.44464275 133.61386833 166.45457725 135.43490601 166.43057251 C136.57034851 166.41868393 137.70579102 166.40679535 138.87564087 166.39454651 C140.12241608 166.3767363 141.36919128 166.35892609 142.65374756 166.34057617 C144.66849984 166.31878592 146.6832526 166.29702284 148.69801593 166.27627921 C150.12823103 166.26143935 151.5584401 166.24600789 152.98864293 166.23002839 C162.17060713 166.1291872 171.35292248 166.10497304 180.53534818 166.07690549 C189.47508733 166.04906598 198.41306874 165.99727504 207.35198975 165.86938477 C214.45449119 165.76790954 221.55510647 165.71967103 228.6583513 165.73360097 C232.41569585 165.73902066 236.16862949 165.71808798 239.92509842 165.6327095 C262.75407923 165.13785739 262.75407923 165.13785739 268.08290863 168.8401413 C271.76971786 172.83642604 273.32303279 177.2702156 274.97161865 182.37329102 C275.98191227 184.15394063 277.03312015 185.91345663 278.15911865 187.62329102 C280.70828566 191.8672339 283.07143409 196.19814278 285.42474365 200.55297852 C287.51529631 204.36454169 289.71051327 208.10996248 291.9130249 211.85766602 C293.51746632 214.58966198 295.10424257 217.3314919 296.6864624 220.07641602 C297.16639648 220.90850586 297.64633057 221.7405957 298.14080811 222.59790039 C299.08698711 224.23923456 300.03219166 225.881131 300.97625732 227.52368164 C303.52566993 231.94136961 306.15702931 236.28998308 308.87738037 240.60424805 C310.25607366 242.83316629 311.50021737 245.11739044 312.72161865 247.43579102 C314.51539181 250.7926421 316.38289257 254.07417973 318.3895874 257.30688477 C318.80563232 257.98033936 319.22167725 258.65379395 319.65032959 259.34765625 C320.47954558 260.68202497 321.31726218 262.01115424 322.16400146 263.33447266 C323.1769428 264.96875651 324.0834383 266.66798473 324.97161865 268.37329102 C324.64161865 269.36329102 324.31161865 270.35329102 323.97161865 271.37329102 C156.66161865 271.37329102 -10.64838135 271.37329102 -183.02838135 271.37329102 C-183.02838135 267.03626324 -182.4066224 265.75711701 -180.34088135 262.06079102 C-179.70537354 260.91610352 -179.06986572 259.77141602 -178.4151001 258.59204102 C-177.62023287 257.18539201 -176.82458282 255.77918523 -176.02838135 254.37329102 C-175.01390975 252.57129138 -173.99959798 250.76920176 -172.9854126 248.96704102 C-170.18532584 243.99933319 -167.37399461 239.03806499 -164.56060791 234.07788086 C-162.54170957 230.51424863 -160.53352542 226.94467489 -158.52838135 223.37329102 C-155.95987248 218.79954807 -153.38290821 214.23070921 -150.7979126 209.66625977 C-150.22685791 208.65756836 -149.65580322 207.64887695 -149.06744385 206.60961914 C-147.95229668 204.64045089 -146.83646019 202.67167276 -145.7197876 200.70336914 C-142.56584955 195.13323351 -139.47077044 189.53484656 -136.41436768 183.91064453 C-134.55218567 180.50150984 -132.64517012 177.11978974 -130.71588135 173.74829102 C-130.36976807 173.13856445 -130.02365479 172.52883789 -129.66705322 171.90063477 C-127.15045927 167.49536894 -127.15045927 167.49536894 -126.02838135 166.37329102 C-124.28579678 166.27751817 -122.53921708 166.25446422 -120.79400635 166.25805664 C-119.62812988 166.25866089 -118.46225342 166.25926514 -117.26104736 166.2598877 C-115.94676758 166.26637329 -114.63248779 166.27285889 -113.27838135 166.27954102 C-111.86684217 166.28336405 -110.45530241 166.28697828 -109.04376221 166.29040527 C-87.54459364 166.35839219 -66.04575379 166.61298646 -44.54779053 166.83685303 C-38.606437 166.89836647 -32.66506464 166.95800414 -26.72369385 167.01782227 C-15.15857103 167.13452583 -3.59346978 167.25323152 7.97161865 167.37329102 C7.26674065 166.27791016 7.26674065 166.27791016 6.54762268 165.16040039 C5.92546371 164.1890918 5.30330475 163.2177832 4.66229248 162.21704102 C3.74085197 160.78134766 3.74085197 160.78134766 2.80079651 159.31665039 C0.52892748 155.66094957 -1.5226906 151.9121861 -3.55426025 148.11938477 C-6.03569234 143.49680309 -8.63128119 138.93874581 -11.21588135 134.37329102 C-12.05518188 132.88986206 -12.05518188 132.88986206 -12.91143799 131.37646484 C-19.27594159 120.14609978 -25.65070868 108.91380912 -32.34088135 97.87329102 C-34.82625048 93.76641324 -37.12002453 89.57168514 -39.40338135 85.34985352 C-41.20585712 82.04820319 -43.04330132 78.76771342 -44.90338135 75.49829102 C-45.23587891 74.91273437 -45.56837646 74.32717773 -45.91094971 73.72387695 C-47.63880649 70.70747004 -49.41363122 67.7344886 -51.2822876 64.80297852 C-51.64789795 64.22660645 -52.0135083 63.65023437 -52.39019775 63.05639648 C-53.40495076 61.46862816 -54.43305162 59.88941333 -55.4619751 58.31079102 C-57.21577764 55.02186455 -58.03759527 53.11414216 -58.02838135 49.37329102 C-56.82621866 46.26279483 -55.17961045 43.47709589 -53.46588135 40.62329102 C-53.03468994 39.87563477 -52.60349854 39.12797852 -52.15924072 38.35766602 C-50.35229426 35.24021628 -48.51530005 32.14637364 -46.59486389 29.09729004 C-43.94776741 24.84847879 -41.7039556 20.76122784 -39.95123291 16.06567383 C-32.23085082 -2.79305701 -17.73008831 -1.08872835 0 0 Z " fill="#4F73BC" transform="translate(288.02838134765625,-1.373291015625)"/>
<path d="M0 0 C167.64 0 335.28 0 508 0 C507.02787298 3.88850807 505.73397872 6.57160158 503.8125 10.0625 C502.86117187 11.79886719 502.86117187 11.79886719 501.890625 13.5703125 C501.26671875 14.70210937 500.6428125 15.83390625 500 17 C499.02060875 18.81237865 498.04142737 20.62487075 497.0625 22.4375 C494.57883166 26.98222296 492.02546074 31.48417779 489.44677734 35.97558594 C486.16447714 41.69646979 482.92656522 47.44205473 479.6875 53.1875 C475.02475451 61.4565187 470.31220827 69.69402042 465.5144043 77.88549805 C465.09457275 78.60519775 464.67474121 79.32489746 464.2421875 80.06640625 C463.8797998 80.68459229 463.51741211 81.30277832 463.14404297 81.93969727 C461.01930596 85.76612826 459.17789611 89.35113336 458.01501465 93.59268188 C456.40967706 98.06644651 455.00568687 101.28635718 451 104 C442.10182206 106.60660185 432.32619627 105.80461707 423.13035011 105.62144423 C419.39607598 105.56182827 415.6622235 105.58181741 411.9276123 105.59317017 C404.86489974 105.60264226 397.80468526 105.54108105 390.74257994 105.45364916 C382.6990333 105.35755072 374.65593241 105.34116124 366.61188984 105.3312881 C350.07348314 105.30921249 333.53737501 105.18762071 317 105 C317.62058871 105.92435931 317.62058871 105.92435931 318.25371456 106.86739254 C319.06639467 108.08133867 319.06639467 108.08133867 319.89549255 109.31980896 C320.43296836 110.1216735 320.97044416 110.92353804 321.52420712 111.7497015 C323.14422958 114.21992219 324.59416 116.73531917 325.97265625 119.34765625 C329.04541266 125.09220086 332.22752767 130.76866311 335.4375 136.4375 C336.29444458 137.95234985 336.29444458 137.95234985 337.16870117 139.49780273 C340.54030831 145.44913833 343.94341267 151.378638 347.40625 157.27734375 C351.5191132 164.30348506 355.56024771 171.37064096 359.484375 178.50390625 C363.5937651 185.9723304 367.73979948 193.32612899 372.40234375 200.46875 C375.16739595 204.8495662 377.59827219 209.41217939 380 214 C380.40605469 214.64066406 380.81210937 215.28132812 381.23046875 215.94140625 C382.37852295 219.01259693 381.86442322 220.84694965 381 224 C379.76492337 226.68188069 378.31160231 229.20815058 376.8125 231.75 C376.43802734 232.40226563 376.06355469 233.05453125 375.67773438 233.7265625 C374.02592478 236.59007054 372.35548106 239.43507163 370.5947113 242.23327637 C367.93788592 246.49603249 365.68078728 250.59575235 363.92285156 255.30761719 C361.5603061 261.07865396 359.06994433 266.17414624 354 270 C344.46841987 273.10473743 333.84755651 271.97972982 323.97161865 271.37329102 C320.25288967 271.16691632 316.53142311 271.07699733 312.80859375 270.9765625 C305.53159695 270.76339837 298.26813071 270.42326884 291 270 C290.60502823 269.29308014 290.21005646 268.58616028 289.80311584 267.8578186 C287.98534501 264.60533266 286.1665074 261.35344443 284.34765625 258.1015625 C283.72652954 256.98982666 283.10540283 255.87809082 282.4654541 254.73266602 C278.83887001 248.25075693 275.1762532 241.7928688 271.4375 235.375 C267.34376077 228.34138061 263.31119563 221.27562714 259.3125 214.1875 C258.75771973 213.20426758 258.20293945 212.22103516 257.63134766 211.20800781 C256.56537775 209.31855143 255.49945764 207.42906697 254.43359375 205.53955078 C249.27559611 196.4023758 244.04339266 187.31268576 238.67504883 178.29736328 C236.40330037 174.46282069 234.22207156 170.59231058 232.1015625 166.671875 C229.03305277 161.01299494 225.79150199 155.46894338 222.5 149.9375 C221.95730469 149.02162109 221.41460938 148.10574219 220.85546875 147.16210938 C218.17889893 142.64899104 215.48647537 138.14598584 212.77734375 133.65234375 C210.79285657 130.34844957 208.87401983 127.02779409 207.0625 123.625 C204.29166608 118.47286585 201.33272638 113.44776317 198.3203125 108.43359375 C197 106 197 106 197 104 C151.13 104 105.26 104 58 104 C54.04 97.07 50.08 90.14 46 83 C43.56954502 78.80800076 41.13614231 74.61875565 38.6875 70.4375 C37.56640625 68.51953125 36.4453125 66.6015625 35.32421875 64.68359375 C34.78112061 63.75538818 34.23802246 62.82718262 33.6784668 61.87084961 C31.90794606 58.84255094 30.14130139 55.81201134 28.375 52.78125 C26.0742585 48.8358914 23.76290757 44.89720814 21.43798828 40.96606445 C16.57305132 32.73788365 11.81134487 24.4542259 7.1105957 16.13110352 C5.05367785 12.50641503 3.01770689 8.96140053 0.5859375 5.57421875 C0.06257813 4.72472656 -0.46078125 3.87523437 -1 3 C-0.67 2.01 -0.34 1.02 0 0 Z " fill="#7DB6E1" transform="translate(428,630)"/>
<path d="M0 0 C0.66 0 1.32 0 2 0 C2.39155273 0.68288086 2.78310547 1.36576172 3.18652344 2.06933594 C17.66990513 27.3328036 17.66990513 27.3328036 32.87548828 52.1652832 C34.06175648 54.10075987 35.1634419 56.06955799 36.25 58.0625 C38.88964455 62.87694603 41.71949361 67.56805199 44.55493164 72.26855469 C47.53966786 77.22017939 50.47163029 82.19967722 53.35546875 87.2109375 C54.46549324 89.09349685 55.61534682 90.95305343 56.80078125 92.7890625 C57.64189453 94.10003906 57.64189453 94.10003906 58.5 95.4375 C59.0053125 96.19933594 59.510625 96.96117187 60.03125 97.74609375 C61.28001934 100.6514966 60.97117516 102.02079116 60 105 C58.94140625 107.078125 58.94140625 107.078125 57.5625 109.25 C54.68782093 113.88257634 51.88530284 118.54871981 49.125 123.25 C48.69550049 123.98001221 48.26600098 124.71002441 47.82348633 125.4621582 C45.09867314 130.1017603 42.40959018 134.76024505 39.75 139.4375 C37.54210067 143.31898702 35.31116058 147.17912968 33 151 C28.8661101 157.83767736 24.94684434 164.80062437 21.00732422 171.75146484 C16.93251479 178.94075243 12.78515296 186.07480043 8.51611328 193.15039062 C3.94644179 200.72897248 -0.5241231 208.3657799 -5 216 C8.35136128 217.08642165 21.61833763 217.0118499 35.00505066 216.83244705 C42.10043482 216.74955664 49.19626176 216.72955706 56.29204845 216.70361447 C63.76049941 216.67571422 71.226851 216.62305341 78.69433594 216.49609375 C85.31500649 216.38370599 91.93314303 216.35020289 98.5549469 216.36359787 C101.0652961 216.35562359 103.57571094 216.32122281 106.08531189 216.25941849 C125.15414256 215.81117752 125.15414256 215.81117752 129.90716553 219.46685028 C133.4216368 223.50922942 135.16489825 228.02491382 137 233 C138.01891036 234.77573307 139.07145928 236.53364941 140.1875 238.25 C142.72623615 242.47657721 145.08792598 246.78402054 147.41015625 251.1328125 C148.53271393 253.1572777 149.71337279 255.1500434 150.93359375 257.1171875 C157.29598511 267.38406451 157.29598511 267.38406451 156 273 C154.95384714 275.03955852 153.77639476 276.89390289 152.48046875 278.78515625 C150.87842089 281.18188748 149.53685857 283.64035464 148.1875 286.1875 C145.31669674 291.52320889 142.15635521 296.64409402 138.953125 301.78515625 C136.63136822 305.60676792 134.5015411 309.50736149 132.421875 313.46484375 C131.95265625 314.30144531 131.4834375 315.13804687 131 316 C130.20757212 317.54110915 130.20757212 317.54110915 129.39913559 319.11335182 C127 322 127 322 123.49365616 322.73828697 C122.05996614 322.76346454 120.62546615 322.75541521 119.19195557 322.7215271 C118.40041226 322.72665365 117.60886896 322.7317802 116.79333949 322.7370621 C114.13776759 322.74695508 111.48446423 322.7139334 108.82910156 322.68115234 C106.92705845 322.67946012 105.02501141 322.68040946 103.12297058 322.68380737 C97.95567465 322.68553146 92.7892115 322.65021432 87.62210941 322.60836363 C82.22359991 322.5708986 76.82507208 322.5673346 71.42645264 322.56021118 C61.20181161 322.54154992 50.97755473 322.49229541 40.75308299 322.43211424 C29.11360454 322.36508906 17.47410791 322.33207012 5.83448458 322.30194163 C-18.11055673 322.23919763 -42.05525686 322.13363757 -66 322 C-66.26627197 322.54342041 -66.53254395 323.08684082 -66.80688477 323.64672852 C-67.3375354 324.72071899 -67.3375354 324.72071899 -67.87890625 325.81640625 C-68.22767822 326.52482666 -68.5764502 327.23324707 -68.93579102 327.96313477 C-70.41170202 330.78798576 -72.22048143 333.35768455 -74 336 C-74.7440075 337.30952923 -75.47448913 338.62678628 -76.1953125 339.94921875 C-79.91216742 346.68947025 -83.83956354 353.30646236 -87.74023438 359.94140625 C-91.15162057 365.76499667 -94.47103828 371.62371015 -97.66723633 377.56835938 C-99.44161291 380.80572717 -101.34490247 383.95648412 -103.2578125 387.11328125 C-109.38167557 397.26022029 -115.31595878 407.51798859 -121.1875 417.8125 C-121.69539062 418.70203369 -122.20328125 419.59156738 -122.7265625 420.50805664 C-125.45811551 425.29182139 -125.45811551 425.29182139 -128.17919922 430.08154297 C-129.15662992 431.80692065 -130.14049405 433.52864967 -131.125 435.25 C-131.90230469 436.61898437 -131.90230469 436.61898437 -132.6953125 438.015625 C-134 440 -134 440 -136 441 C-137.55853285 441.09249578 -139.12100723 441.12192612 -140.68228149 441.12025452 C-142.16308952 441.12231651 -142.16308952 441.12231651 -143.67381287 441.12442017 C-144.76065872 441.12082489 -145.84750458 441.11722961 -146.96728516 441.11352539 C-148.67947487 441.11374443 -148.67947487 441.11374443 -150.42625427 441.1139679 C-154.21387609 441.11326906 -158.00144923 441.10547798 -161.7890625 441.09765625 C-164.40937269 441.09579197 -167.02968323 441.09436811 -169.6499939 441.09336853 C-175.85127161 441.09025752 -182.05253174 441.08204722 -188.2538017 441.07201904 C-195.31296163 441.06085078 -202.37212239 441.05534565 -209.43128896 441.05032361 C-223.95420172 441.03986443 -238.47710061 441.02226942 -253 441 C-252.32545757 437.3478022 -251.45308406 434.61905668 -249.625 431.375 C-249.08101562 430.40691406 -248.53703125 429.43882812 -247.9765625 428.44140625 C-247.32429687 427.30574219 -246.67203125 426.17007812 -246 425 C-245.62584961 424.34757324 -245.25169922 423.69514648 -244.86621094 423.02294922 C-238.63629196 412.1742972 -232.30693359 401.38300065 -225.99780273 390.58032227 C-222.2035682 384.07869679 -218.4446733 377.55878873 -214.72265625 371.015625 C-212.43477492 367.01053569 -210.10374595 363.0312855 -207.7734375 359.05078125 C-205.8692271 355.77503605 -203.99603802 352.4822337 -202.125 349.1875 C-199.28159764 344.18341745 -196.3543196 339.23675746 -193.375 334.3125 C-190.26004192 329.16083856 -187.29589024 323.95628757 -184.4453125 318.65234375 C-180.97828264 312.28987545 -177.23274494 306.08259598 -173.54296875 299.84765625 C-172.67415986 298.37779285 -171.80567451 296.90773818 -170.9375 295.4375 C-170.5048584 294.7048291 -170.0722168 293.9721582 -169.62646484 293.21728516 C-167.30194517 289.26498042 -165.04076599 285.29236977 -162.875 281.25 C-160.08472259 276.04885968 -156.98631536 271.06222472 -153.87109375 266.05078125 C-151.92704123 262.88104217 -150.10386214 259.66991496 -148.32421875 256.40625 C-146.69012393 253.43692137 -145.00094142 250.50126431 -143.3125 247.5625 C-140.6263644 242.88321848 -137.9855661 238.18137509 -135.37817383 233.45776367 C-131.54123626 226.50672483 -127.64533254 219.59687092 -123.625 212.75 C-123.22039551 212.0593042 -122.81579102 211.3686084 -122.39892578 210.65698242 C-120.05197125 206.68299506 -117.56071192 202.84106788 -115 199 C-114.1429848 197.49238485 -113.30961235 195.97109262 -112.5 194.4375 C-104.67410728 179.920469 -96.27001073 165.71405795 -87.94702148 151.47875977 C-84.24059351 145.13708687 -80.5640744 138.78048785 -76.94140625 132.390625 C-72.86874173 125.27780247 -68.71109293 118.21393744 -64.5703125 111.140625 C-58.96990165 101.56921764 -53.38981414 91.99120333 -47.97875977 82.3112793 C-43.94576834 75.09917482 -39.7628862 67.97803903 -35.5546875 60.8671875 C-30.08415619 51.63300302 -30.08415619 51.63300302 -24.875 42.25 C-22.10862956 37.09236019 -19.03013358 32.15445696 -15.9375 27.1875 C-14.20045226 24.3297763 -12.57691129 21.4481385 -11 18.5 C-8.68957335 14.20286032 -6.27039386 9.98889271 -3.75 5.8125 C-3.08484375 4.70519531 -2.4196875 3.59789062 -1.734375 2.45703125 C-1.16203125 1.64621094 -0.5896875 0.83539063 0 0 Z " fill="#4F73BC" transform="translate(884,180)"/>
<path d="M0 0 C39.27 0 78.54 0 119 0 C117.53147843 4.40556472 116.38195388 7.35686779 114.06640625 11.1875 C113.2165918 12.60675781 113.2165918 12.60675781 112.34960938 14.0546875 C111.75986328 15.02664063 111.17011719 15.99859375 110.5625 17 C105.52134283 25.35615651 105.52134283 25.35615651 101 34 C96.98588821 41.256279 92.78377257 48.40041142 88.5 55.5 C84.61873257 61.93306271 80.86196592 68.42949474 77.15576172 74.96533203 C74.86244034 79.00262403 72.5548098 83.03175943 70.25 87.0625 C67.13437545 92.51225278 64.02027451 97.96284436 60.9140625 103.41796875 C55.83468198 112.33289942 50.71823503 121.22184669 45.49853516 130.05541992 C42.3917653 135.317488 39.35579336 140.61720638 36.3359375 145.9296875 C32.64554583 152.38871088 28.86670569 158.79727529 25.09863281 165.21118164 C21.71599711 170.98770463 18.43602508 176.80439695 15.2722168 182.70385742 C13.67649271 185.58387757 11.83938785 188.27058577 10 191 C8.79464928 193.0951187 7.63381848 195.21211122 6.47265625 197.33203125 C4.40655237 201.07513191 2.27922887 204.78264445 0.15332031 208.49194336 C-1.57565939 211.50879542 -3.30071709 214.52759508 -5.01171875 217.5546875 C-8.28234404 223.3306262 -11.61939768 229.04921186 -15.125 234.6875 C-18.04625421 239.38986844 -20.75061493 244.15448151 -23.359375 249.03515625 C-25.73485962 253.32799631 -28.28123494 257.51404351 -30.84155273 261.69873047 C-33.08663938 265.38924318 -35.08279736 269.12501901 -37 273 C-38.29843032 275.32224397 -39.60704804 277.63391747 -40.9375 279.9375 C-41.27201172 280.51951172 -41.60652344 281.10152344 -41.95117188 281.70117188 C-42.62698488 282.87700838 -43.30374322 284.05230205 -43.98144531 285.22705078 C-44.6673189 286.42091798 -45.34888421 287.61726945 -46.02636719 288.81591797 C-48.53271013 293.24716119 -51.23434852 297.50929016 -54.0234375 301.765625 C-56.28201966 305.46148671 -58.33788377 309.24281653 -60.3984375 313.05175781 C-62.98510612 317.8134362 -65.64684566 322.53220537 -68.3125 327.25 C-68.88154053 328.25724121 -69.45058105 329.26448242 -70.03686523 330.30224609 C-73.47891081 336.37358477 -76.99072552 342.3918401 -80.61425781 348.35620117 C-85.92604136 357.12982728 -90.93496554 366.08260841 -96 375 C-101.54668755 384.76455897 -107.1855977 394.47230666 -112.85131836 404.16821289 C-116.07115771 409.68179121 -119.27729378 415.20202906 -122.4375 420.75 C-123.34048828 422.32587891 -123.34048828 422.32587891 -124.26171875 423.93359375 C-125.49138084 426.10277294 -126.70035392 428.28374151 -127.89453125 430.47265625 C-128.50683594 431.57480469 -129.11914062 432.67695312 -129.75 433.8125 C-130.54664063 435.27623047 -130.54664063 435.27623047 -131.359375 436.76953125 C-133 439 -133 439 -135.203125 439.82421875 C-135.79609375 439.88222656 -136.3890625 439.94023438 -137 440 C-137.44988281 439.20980469 -137.89976562 438.41960937 -138.36328125 437.60546875 C-140.14573309 434.47992694 -141.9315694 431.35637433 -143.72021484 428.234375 C-144.60149913 426.69574208 -145.4819868 425.15665271 -146.36181641 423.6171875 C-147.77956488 421.13870941 -149.20186544 418.66288866 -150.625 416.1875 C-151.2888269 415.02480591 -151.2888269 415.02480591 -151.96606445 413.83862305 C-154.68720533 409.1169239 -157.57022928 404.55487215 -160.64453125 400.0546875 C-162.4582206 397.30540623 -164.02812809 394.44990476 -165.6015625 391.55859375 C-172.56438217 378.81935665 -179.93084123 366.25549348 -187.8125 354.0625 C-194.9618718 342.83015363 -194.9618718 342.83015363 -195.0625 338 C-193.92053095 334.7756168 -192.45773738 332.28633581 -190.578125 329.4453125 C-188.66749211 326.48477738 -186.92375983 323.4394334 -185.1875 320.375 C-184.6781189 319.4792627 -184.6781189 319.4792627 -184.15844727 318.56542969 C-183.10441981 316.71097167 -182.05216985 314.85551247 -181 313 C-175.65701924 303.59176204 -170.31029296 294.19296036 -164.5 285.0625 C-162.63306569 282.09416906 -160.92951386 279.06902856 -159.26953125 275.98046875 C-156.02334436 270.00166933 -152.62632618 264.11962203 -149.1875 258.25 C-148.57729004 257.20593994 -147.96708008 256.16187988 -147.33837891 255.08618164 C-143.22998073 248.0680747 -139.07883373 241.07768451 -134.8671875 234.12109375 C-133.5145537 231.86010126 -132.18744677 229.59352695 -130.88330078 227.30493164 C-130.26181152 226.2143042 -129.64032227 225.12367676 -129 224 C-129.67991564 224.0031424 -130.35983128 224.00628481 -131.06035042 224.00952244 C-147.61119928 224.0829219 -164.16129959 224.10662801 -180.71226692 224.07515812 C-188.71630453 224.06113521 -196.71967847 224.06387539 -204.72363281 224.10620117 C-211.70070887 224.14305405 -218.67697561 224.14832957 -225.65408599 224.11582941 C-229.34812466 224.09972122 -233.0406456 224.09932856 -236.73456192 224.13676643 C-240.86076543 224.17799341 -244.98360369 224.14870652 -249.10986328 224.11352539 C-250.33193985 224.13653214 -251.55401642 224.15953888 -252.81312561 224.1832428 C-260.91230921 224.03390708 -260.91230921 224.03390708 -264.05135727 221.05007744 C-265.60492389 218.75742151 -266.82918265 216.5060309 -268 214 C-268.70105768 212.78072414 -269.41001271 211.56588897 -270.1328125 210.359375 C-270.80027836 209.15813477 -271.46424469 207.95494447 -272.125 206.75 C-272.88858128 205.3758897 -273.6529493 204.00221639 -274.41796875 202.62890625 C-274.8257959 201.89559082 -275.23362305 201.16227539 -275.65380859 200.40673828 C-278.22056366 195.81786061 -280.82994225 191.2532748 -283.4375 186.6875 C-283.95779785 185.77387695 -284.4780957 184.86025391 -285.01416016 183.91894531 C-285.50319824 183.06268555 -285.99223633 182.20642578 -286.49609375 181.32421875 C-286.93107178 180.56197998 -287.3660498 179.79974121 -287.81420898 179.0144043 C-288.81878312 177.30784857 -289.90153931 175.64769104 -291 174 C-291.14364298 167.24877974 -287.5684838 162.39737774 -284.109375 156.80859375 C-282.04499504 153.4430729 -280.06004129 150.03045611 -278.0625 146.625 C-277.42731445 145.54677979 -277.42731445 145.54677979 -276.77929688 144.44677734 C-273.36418498 138.64499756 -270.0143196 132.8081122 -266.69140625 126.953125 C-266.13324219 125.97859375 -265.57507813 125.0040625 -265 124 C-264.62945842 123.12649304 -264.25891684 122.25298609 -263.87714672 121.35300922 C-262 119 -262 119 -258.60108662 118.38476086 C-257.15895272 118.36370218 -255.71625916 118.37057888 -254.27424622 118.39872742 C-253.47947378 118.39445529 -252.68470135 118.39018317 -251.86584491 118.38578159 C-249.19360607 118.37752325 -246.52292508 118.40508208 -243.85083008 118.43237305 C-241.93908221 118.43378291 -240.02733162 118.43299275 -238.11558533 118.43016052 C-232.91734584 118.42872255 -227.71968009 118.4581741 -222.52157426 118.49303031 C-217.09234902 118.52423031 -211.66311147 118.52721953 -206.23381042 118.53315735 C-195.9489862 118.54871449 -185.66442687 118.58976834 -175.37971944 118.6399048 C-163.67253395 118.69574003 -151.96533599 118.72327012 -140.25805056 118.74838197 C-116.17188669 118.8006825 -92.08595817 118.88866118 -68 119 C-67.53737259 117.82371033 -67.53737259 117.82371033 -67.06539917 116.62365723 C-66.12257541 114.30185481 -65.08737061 112.24900438 -63.8203125 110.09375 C-63.39218262 109.3605957 -62.96405273 108.62744141 -62.52294922 107.87207031 C-62.06162598 107.08928711 -61.60030273 106.30650391 -61.125 105.5 C-60.12957039 103.79724778 -59.13480273 102.09410845 -58.140625 100.390625 C-57.3662207 99.06514648 -57.3662207 99.06514648 -56.57617188 97.71289062 C-53.97889089 93.24247763 -51.42992073 88.74470716 -48.875 84.25 C-45.04658024 77.52726546 -41.14878599 70.85558659 -37.14526367 64.23583984 C-33.72172913 58.56636128 -30.43629579 52.82188994 -27.16894531 47.06103516 C-20.5783362 35.44075068 -13.98553146 23.83173951 -7.03515625 12.421875 C-4.60269909 8.33198541 -2.31096875 4.15974375 0 0 Z " fill="#7DB6E1" transform="translate(291,280)"/>
<path d="M0 0 C39.6 0 79.2 0 120 0 C124.62 8.25 129.24 16.5 134 25 C138.76090294 33.29146018 143.54714788 41.56144981 148.4296875 49.78125 C149.01290771 50.76391846 149.59612793 51.74658691 150.19702148 52.7590332 C151.32390648 54.65508953 152.45345593 56.54956586 153.58618164 58.44213867 C155.8631872 62.26885682 158.0863423 66.07663028 160.03515625 70.08203125 C162.22442483 74.57555458 164.84910615 78.76723761 167.5 83 C170.599822 87.94957955 173.51338736 92.87925936 176.06640625 98.13378906 C178.01872531 102.03638502 180.35881366 105.72576216 182.609375 109.4609375 C184 112 184 112 184 114 C184.66 114 185.32 114 186 114 C186.37898438 112.96939453 186.37898438 112.96939453 186.765625 111.91796875 C188.18483853 108.56305576 189.92182173 105.45489698 191.75 102.3125 C192.10707031 101.69310547 192.46414063 101.07371094 192.83203125 100.43554688 C195.32223371 96.12901395 197.87347017 91.86135522 200.44921875 87.60546875 C202.27894037 84.53135207 204.04736912 81.42392442 205.8125 78.3125 C208.69898532 73.22605611 211.66384094 68.19356639 214.6875 63.1875 C217.44192863 58.62589324 220.13533238 54.04447092 222.68652344 49.36572266 C224.15735661 46.71658262 225.67741247 44.10002091 227.20703125 41.484375 C227.82610352 40.42516846 228.44517578 39.36596191 229.08300781 38.2746582 C230.89985403 35.17107206 232.71738128 32.06788599 234.53515625 28.96484375 C235.11716797 27.97033203 235.69917969 26.97582031 236.29882812 25.95117188 C237.47730896 23.93744439 238.65700239 21.92442606 239.83789062 19.91210938 C240.70897461 18.42227539 240.70897461 18.42227539 241.59765625 16.90234375 C242.10820557 16.03085693 242.61875488 15.15937012 243.14477539 14.26147461 C245.82819324 9.54404087 248.40115552 4.76454822 251 0 C271.46 0 291.92 0 313 0 C315.97 5.28 318.94 10.56 322 16 C323.87642216 19.1210122 325.75884908 22.22534329 327.6875 25.3125 C331.67423092 31.76495622 335.50931905 38.26189113 339 45 C339.40089844 45.61101563 339.80179688 46.22203125 340.21484375 46.8515625 C341.62527592 50.710954 340.81428233 54.2345206 339.1171875 57.9140625 C337.97058571 59.98454486 336.75417723 61.99289697 335.5 64 C335.05221191 64.73839111 334.60442383 65.47678223 334.14306641 66.23754883 C333.21901534 67.75977394 332.29012655 69.27907279 331.35644531 70.79541016 C329.3370546 74.07746526 327.35633111 77.38238226 325.375 80.6875 C325.0027832 81.30625 324.63056641 81.925 324.24707031 82.5625 C319.2675618 90.85440724 314.52864436 99.28266481 309.78515625 107.7109375 C309.21313477 108.72607422 308.64111328 109.74121094 308.05175781 110.78710938 C306.91776772 112.80040341 305.78552108 114.81468073 304.65527344 116.83007812 C301.9024982 121.71906056 299.07945724 126.53258305 296.07446289 131.27050781 C294.62549311 133.60281909 293.33871677 136.00713937 292.0625 138.4375 C290.155475 141.9868216 288.15066079 145.36285703 285.875 148.6875 C283.60802299 151.99987055 281.77465557 155.32520873 280.0390625 158.9375 C278.46889174 162.05422993 276.64103041 165.00016213 274.828125 167.98046875 C272.56420544 171.71980598 270.3417018 175.48252952 268.125 179.25 C267.69525879 179.98025391 267.26551758 180.71050781 266.82275391 181.46289062 C264.09858169 186.10248043 261.409483 190.76056754 258.75 195.4375 C255.06968801 201.90592714 251.36029335 208.36710608 247.3046875 214.609375 C245.70966693 216.95033623 245.70966693 216.95033623 246.4375 219.6875 C248.14983428 223.31764867 250.11436543 226.67349612 252.22265625 230.0859375 C254.24043536 233.3942083 256.1546729 236.75261919 258.0625 240.125 C260.18021751 243.85832141 262.31432671 247.5691788 264.625 251.1875 C266.41648326 254.0043717 268.04277956 256.87280634 269.625 259.8125 C272.36324753 264.89083151 275.22605525 269.88746953 278.125 274.875 C286.18075943 288.73988169 294.14224387 302.6571318 301.97338867 316.65014648 C304.4992385 321.14893253 307.11026989 325.58710648 309.80859375 329.984375 C310.20175781 330.64953125 310.59492187 331.3146875 311 332 C311.40347656 332.62390625 311.80695313 333.2478125 312.22265625 333.890625 C313.35778307 336.97086864 312.85087914 338.8440119 312 342 C310.82203631 344.42454662 309.61519118 346.68746058 308.25 349 C307.86094482 349.67571045 307.47188965 350.3514209 307.07104492 351.04760742 C305.72642347 353.37254658 304.3653566 355.68717838 303 358 C302.47164551 358.89541504 301.94329102 359.79083008 301.39892578 360.71337891 C296.88379146 368.35609535 296.88379146 368.35609535 294.69433594 372.02148438 C291.45740613 377.45568772 288.37623379 382.9518597 285.3684082 388.51586914 C283.66409545 391.60978213 281.83082806 394.5806055 279.9375 397.5625 C277.03016637 402.22311116 274.42972964 406.90314196 272.10546875 411.87890625 C270.93439345 414.12588112 269.52362361 415.97878792 268 418 C267.01276309 419.71282907 266.05612359 421.44353068 265.125 423.1875 C264.60421875 424.14914062 264.0834375 425.11078125 263.546875 426.1015625 C262.56406689 427.94308679 261.59379499 429.79139941 260.640625 431.6484375 C260.22296875 432.44507813 259.8053125 433.24171875 259.375 434.0625 C259.01148438 434.77535156 258.64796875 435.48820312 258.2734375 436.22265625 C256.76413402 438.32919945 255.37380782 439.03344956 253 440 C252.484375 439.071875 251.96875 438.14375 251.4375 437.1875 C249.60482672 433.96898897 247.63690494 430.85930764 245.625 427.75 C242.80578818 423.34869885 240.25376652 418.87602353 237.7890625 414.26953125 C235.47138984 410.03395917 233.05088235 405.86179568 230.625 401.6875 C230.14885254 400.86781738 229.67270508 400.04813477 229.18212891 399.20361328 C228.23473834 397.57273194 227.28731054 395.94187222 226.33984375 394.31103516 C222.30430992 387.35032757 218.28780028 380.3776141 214.4375 373.3125 C212.60843827 369.99195504 210.6194818 366.80927968 208.5625 363.625 C205.78890504 359.31051895 203.2787508 354.93022663 200.859375 350.41015625 C194.67644401 339.07045299 188.14317603 327.91243045 181.61328125 316.76953125 C179.86833111 313.77396309 178.15165028 310.76329576 176.4375 307.75 C172.67433749 301.13783049 168.83847166 294.56867003 165 288 C160.68378066 280.6136783 156.39589271 273.21452343 152.16796875 265.77734375 C149.2566779 260.68223025 146.27686915 255.62683081 143.3125 250.5625 C137.99851184 241.47980177 132.78422682 232.345924 127.62548828 223.17431641 C123.9726325 216.69069366 120.24432827 210.25723935 116.45385742 203.85327148 C113.29521692 198.51536891 110.20988312 193.13991669 107.140625 187.75 C104.54669576 183.19942164 101.93169391 178.66107338 99.3125 174.125 C98.86076416 173.34012207 98.40902832 172.55524414 97.94360352 171.74658203 C95.4062794 167.35736986 92.78594851 163.03618985 90.08325195 158.74707031 C88.77993406 156.64507733 87.59354748 154.4986888 86.4375 152.3125 C79.53777434 139.52406247 72.193811 126.97129783 64.79663086 114.46557617 C60.88336037 107.83560343 57.0700988 101.14964974 53.25878906 94.46069336 C50.07872415 88.8811343 46.86671295 83.32293075 43.62109375 77.78125 C40.78253389 72.91123886 37.99698654 68.01088867 35.20556641 63.11376953 C32.28626206 57.99523227 29.36072059 52.88025191 26.4362793 47.76464844 C24.1756737 43.80975502 21.9158724 39.85444059 19.6640625 35.89453125 C15.3512906 28.31450791 10.9738942 20.78099738 6.3671875 13.375 C5.83351563 12.50875 5.29984375 11.6425 4.75 10.75 C4.27046875 9.98171875 3.7909375 9.2134375 3.296875 8.421875 C2 6 2 6 0 0 Z " fill="#7DB6E1" transform="translate(469,0)"/>
<path d="M0 0 C3.76838382 1.46154101 5.03584424 3.23046927 6.953125 6.734375 C7.75242432 8.1742981 7.75242432 8.1742981 8.56787109 9.64331055 C9.12297363 10.66851807 9.67807617 11.69372559 10.25 12.75 C11.41386206 14.85557955 12.57792394 16.96104867 13.7421875 19.06640625 C14.30260742 20.08879395 14.86302734 21.11118164 15.44042969 22.16455078 C17.38164412 25.69386582 19.36766055 29.1955022 21.375 32.6875 C21.99117188 33.76386719 22.60734375 34.84023438 23.2421875 35.94921875 C25.55574263 39.9645222 27.89446345 43.96485982 30.234375 47.96484375 C32.42231779 51.72597549 34.57802086 55.50505142 36.73168945 59.28588867 C40.14122556 65.26377368 43.59513183 71.21582217 47.05566406 77.16430664 C49.27944486 80.99474052 51.47042139 84.83805881 53.60546875 88.71875 C56.0005607 93.0502792 58.64070761 97.18433854 61.3515625 101.32421875 C63.0886563 104.14390892 64.52215994 107.03693069 66 110 C67.41890425 112.50269946 68.89875133 114.96830012 70.375 117.4375 C74.48581439 124.36704866 78.48530391 131.3538815 82.4375 138.375 C93.55412829 158.20518517 93.55412829 158.20518517 105.46875 177.55859375 C107.55658487 180.8874121 109.4139775 184.31887625 111.26953125 187.78125 C116.9375486 198.32401817 122.73802002 208.79729123 129 219 C132.00385698 223.92474446 134.95174764 228.85793688 137.6875 233.9375 C141.83461457 241.62217949 146.27403428 249.13930684 150.66015625 256.68896484 C154.69569008 263.64967243 158.71219972 270.6223859 162.5625 277.6875 C164.39156173 281.00804496 166.3805182 284.19072032 168.4375 287.375 C171.24072564 291.73290539 173.76751339 296.16374829 176.2109375 300.73046875 C178.52861016 304.96604083 180.94911765 309.13820432 183.375 313.3125 C183.85114746 314.13218262 184.32729492 314.95186523 184.81787109 315.79638672 C185.76526166 317.42726806 186.71268946 319.05812778 187.66015625 320.68896484 C191.69569008 327.64967243 195.71219972 334.6223859 199.5625 341.6875 C201.39156173 345.00804496 203.3805182 348.19072032 205.4375 351.375 C208.21109496 355.68948105 210.7212492 360.06977337 213.140625 364.58984375 C215.67705556 369.24174265 218.30619016 373.8387577 220.9375 378.4375 C221.46311523 379.35611816 221.98873047 380.27473633 222.53027344 381.22119141 C225.8420894 386.99980346 229.18201892 392.76059382 232.5546875 398.50390625 C233.92990935 400.87895156 235.25184121 403.27638242 236.5625 405.6875 C238.21548508 408.696365 240.00103263 411.54053351 241.9375 414.375 C244.79303522 418.5738847 247.2223175 422.93128258 249.609375 427.41015625 C250.81756203 429.66023491 252.07678168 431.863757 253.375 434.0625 C255 437 255 437 255 439 C239.45797142 439.2337434 223.91607449 439.41001111 208.37270164 439.51812172 C201.15525895 439.56965783 193.93890909 439.6398961 186.72216797 439.75439453 C180.43093308 439.85416148 174.14048955 439.91860267 167.84848559 439.94088495 C164.51715953 439.95390964 161.18862147 439.98970037 157.85789108 440.05730057 C154.13615095 440.12983745 150.41910976 440.13989454 146.69677734 440.13525391 C145.04600189 440.18918304 145.04600189 440.18918304 143.36187744 440.24420166 C140.26824511 440.20242436 137.90617172 440.06897022 135 439 C132.23053185 435.97642698 130.64853405 432.72451399 129 429 C128.19593521 427.52503216 127.38047727 426.05613407 126.546875 424.59765625 C126.14275391 423.86305176 125.73863281 423.12844727 125.32226562 422.37158203 C122.70811632 417.68291025 119.96645412 413.06737294 117.25 408.4375 C112.70809411 400.67957513 108.22353189 392.89645856 103.84741211 385.04394531 C101.72666181 381.25109405 99.50714321 377.55260623 97.1640625 373.89453125 C95.19442895 370.6889196 93.44979623 367.36125687 91.6640625 364.05078125 C87.34690994 356.13600155 82.79484057 348.34809413 78.25 340.5625 C77.68667969 339.59699219 77.12335938 338.63148438 76.54296875 337.63671875 C75.59194876 336.011558 74.63704631 334.38865322 73.67578125 332.76953125 C71 328.21600877 71 328.21600877 71 326 C70.34 326 69.68 326 69 326 C68.64421875 326.99966797 68.64421875 326.99966797 68.28125 328.01953125 C66.66283095 331.78432922 64.61277931 335.18250096 62.5 338.6875 C58.390153 345.58121805 54.42864672 352.5420614 50.57617188 359.58276367 C48.00325634 364.26549171 45.3113607 368.86194234 42.54882812 373.43530273 C34.93800979 386.0380213 27.53428429 398.76076003 20.25952148 411.55981445 C15.95782919 419.11279418 11.50975179 426.56992061 7 434 C6.58949905 434.87286652 6.17899811 435.74573303 5.75605774 436.64505005 C4 439 4 439 1.32585144 439.66183472 C0.24918716 439.6778775 -0.82747711 439.69392029 -1.93676758 439.71044922 C-3.7693084 439.75345657 -3.7693084 439.75345657 -5.63887024 439.79733276 C-6.97408582 439.80165829 -8.30930881 439.8040623 -9.64453125 439.8046875 C-11.01593409 439.81821875 -12.38732835 439.83264631 -13.75871277 439.84793091 C-16.63469154 439.87335902 -19.50991226 439.87862411 -22.38598633 439.87158203 C-26.06274553 439.8654925 -29.73537733 439.92327629 -33.41125965 439.99824333 C-36.24513737 440.04647544 -39.07802847 440.05328582 -41.91226768 440.0485878 C-43.9232055 440.05458659 -45.9338929 440.10091103 -47.94429016 440.1479187 C-56.87608696 440.03576848 -56.87608696 440.03576848 -60.14465332 437.02354431 C-61.69027475 434.73639976 -62.88353134 432.51980302 -64 430 C-64.53367188 429.07832031 -65.06734375 428.15664063 -65.6171875 427.20703125 C-66.03226563 426.41683594 -66.44734375 425.62664062 -66.875 424.8125 C-69.15633228 420.55282488 -71.48399156 416.32401337 -73.875 412.125 C-74.20677246 411.53879883 -74.53854492 410.95259766 -74.88037109 410.34863281 C-76.6044067 407.33053691 -78.38401331 404.37250788 -80.2890625 401.46484375 C-80.65918457 400.8929834 -81.02930664 400.32112305 -81.41064453 399.73193359 C-82.43783222 398.15777191 -83.48396238 396.59601761 -84.53125 395.03515625 C-86.31577072 391.34746316 -86.48269325 389.05462334 -86 385 C-84.71484375 382.33203125 -84.71484375 382.33203125 -82.9375 379.8125 C-80.27836423 375.89631823 -77.74941156 371.97151225 -75.375 367.875 C-74.84648437 366.96492188 -74.31796875 366.05484375 -73.7734375 365.1171875 C-72.37054449 362.65130948 -70.98704068 360.177394 -69.61328125 357.6953125 C-67.06538687 353.09931778 -64.45045855 348.54477241 -61.8125 344 C-61.09694946 342.76515869 -61.09694946 342.76515869 -60.36694336 341.50537109 C-56.88896573 335.51107923 -53.37440688 329.53899738 -49.84985352 323.57202148 C-45.92777629 316.91339521 -42.09869298 310.20236991 -38.28540039 303.48095703 C-33.83908035 295.66012292 -29.29618519 287.90837827 -24.375 280.375 C-22.05228414 276.74892611 -19.98823792 273.14156596 -18.14160156 269.2565918 C-16.80178121 266.60818301 -15.32413488 264.06676735 -13.8203125 261.5078125 C-13.19801758 260.44667236 -12.57572266 259.38553223 -11.93457031 258.29223633 C-11.29616211 257.20579834 -10.65775391 256.11936035 -10 255 C-8.80938376 252.96514328 -7.61927036 250.92999226 -6.4296875 248.89453125 C-4.64524822 245.84137526 -2.86079494 242.78823431 -1.07421875 239.73632812 C0.08326404 237.75480958 1.23550525 235.77021754 2.38183594 233.78222656 C3.43042449 231.97931239 4.50024674 230.18851585 5.59472656 228.41308594 C6.06620117 227.62836914 6.53767578 226.84365234 7.0234375 226.03515625 C7.44286621 225.35718994 7.86229492 224.67922363 8.29443359 223.98071289 C9.23833065 221.33094236 8.66102914 220.13426434 7.5 217.625 C6.35903153 215.73425225 5.18665168 213.86241614 4 212 C3.12959088 210.50151351 2.26695822 208.99849563 1.41015625 207.4921875 C-2.85075063 200.0079924 -7.22501347 192.59610702 -11.6875 185.23046875 C-13.12450766 182.78841109 -14.4715572 180.30854841 -15.8125 177.8125 C-18.27053286 173.2522022 -20.88257287 168.80667901 -23.5625 164.375 C-26.36597955 159.73900772 -29.11247222 155.0909522 -31.7109375 150.3359375 C-33.66376363 146.79717985 -35.6888091 143.30006368 -37.70288086 139.79589844 C-39.67552608 136.35190274 -41.61668325 132.8928724 -43.52734375 129.4140625 C-43.9557959 128.63450195 -44.38424805 127.85494141 -44.82568359 127.05175781 C-45.68738892 125.48378442 -46.54839909 123.91542879 -47.40869141 122.34667969 C-49.61928047 118.35330186 -51.91243942 114.53656594 -54.5625 110.8125 C-57.05648404 107.11797351 -58.31738411 104.60206963 -58 100 C-56.37213104 96.11608029 -54.16021198 92.60734428 -52 89 C-50.31450266 85.98953201 -48.65987542 82.96215491 -47 79.9375 C-43.97452544 74.44175604 -40.84034999 69.02841132 -37.59765625 63.65795898 C-34.68855949 58.81820708 -31.84694471 53.93898062 -29 49.0625 C-28.40960938 48.05509766 -27.81921875 47.04769531 -27.2109375 46.00976562 C-23.81157334 40.18816731 -20.51335725 34.32423796 -17.30419922 28.39575195 C-15.77502324 25.58672838 -14.18529064 22.81841128 -12.5625 20.0625 C-10.71969227 16.92972686 -8.88227057 13.79528426 -7.0703125 10.64453125 C-6.44898438 9.56558594 -5.82765625 8.48664063 -5.1875 7.375 C-4.62417969 6.39273437 -4.06085938 5.41046875 -3.48046875 4.3984375 C-2 2 -2 2 0 0 Z " fill="#4F73BC" transform="translate(317,461)"/>
<path d="M0 0 C3.53995445 3.17647699 5.75262007 6.74017209 8 10.875 C10.48933637 15.39664613 13.12376995 19.70675933 16 24 C16.63511323 25.19235817 17.24441875 26.39928776 17.8125 27.625 C20.00763832 32.13485615 22.53913285 36.41955082 25.0859375 40.73828125 C27.38465525 44.65548395 29.62498508 48.60450084 31.86254883 52.55688477 C33.682325 55.75283638 35.54630828 58.9138477 37.47265625 62.046875 C38.08874756 63.0527063 38.08874756 63.0527063 38.71728516 64.07885742 C39.51121766 65.369514 40.3113664 66.65637418 41.11865234 67.9387207 C43.1669242 71.27206646 44.5350538 74.09592795 45 78 C45.66 78 46.32 78 47 78 C51.11111779 84.478125 51.11111779 84.478125 50.54858398 87.12011719 C50.36755127 87.74047852 50.18651855 88.36083984 50 89 C49.69819824 88.47680176 49.39639648 87.95360352 49.08544922 87.41455078 C42.47218613 75.9067853 42.47218613 75.9067853 35.6875 64.5 C33.75873052 61.31643446 31.94908935 58.0915454 30.1875 54.8125 C27.72946714 50.2522022 25.11742713 45.80667901 22.4375 41.375 C19.64099036 36.75053356 16.90004153 32.11460888 14.30859375 27.37109375 C12.57368147 24.22753628 10.7857306 21.11483791 9 18 C8.312309 16.79698416 7.62480535 15.59386121 6.9375 14.390625 C5.7522429 12.31642507 4.56518351 10.24325207 3.375 8.171875 C2.92125 7.37265625 2.4675 6.5734375 2 5.75 C1.4121875 4.72132813 1.4121875 4.72132813 0.8125 3.671875 C0 2 0 2 0 0 Z " fill="#5479C2" transform="translate(271,584)"/>
<path d="M0 0 C0 3.38563217 -0.61138319 4.46504256 -2.25 7.375 C-2.78496094 8.3340625 -3.31992188 9.293125 -3.87109375 10.28125 C-5.57320873 13.27165911 -7.30417684 16.24497524 -9.03515625 19.21875 C-9.57301758 20.14768066 -10.11087891 21.07661133 -10.66503906 22.03369141 C-11.75276505 23.90964798 -12.84704933 25.78181905 -13.94824219 27.64990234 C-14.45645508 28.52598145 -14.96466797 29.40206055 -15.48828125 30.3046875 C-15.94759033 31.08827637 -16.40689941 31.87186523 -16.88012695 32.67919922 C-18.06019292 35.1247425 -18.58431353 37.32599692 -19 40 C-19.66 39.67 -20.32 39.34 -21 39 C-21.38355431 34.62434976 -20.3978878 32.5226365 -17.9375 28.9375 C-12.51640909 20.80038779 -7.66537524 12.35595522 -3.04296875 3.7421875 C-2 2 -2 2 0 0 Z " fill="#5881C7" transform="translate(252,812)"/>
<path d="M0 0 C0.33 0.99 0.66 1.98 1 3 C-0.15234375 5.2421875 -0.15234375 5.2421875 -1.9375 7.875 C-2.58203125 8.84824219 -3.2265625 9.82148437 -3.890625 10.82421875 C-4.58671875 11.87222656 -5.2828125 12.92023437 -6 14 C-11.53357368 22.67875276 -11.53357368 22.67875276 -16.375 31.75 C-18 35 -18 35 -20 36 C-19.41701436 32.1261058 -18.2749991 29.3695693 -16.26953125 26.015625 C-15.71330078 25.07976563 -15.15707031 24.14390625 -14.58398438 23.1796875 C-13.99939453 22.21289062 -13.41480469 21.24609375 -12.8125 20.25 C-12.24724609 19.29867187 -11.68199219 18.34734375 -11.09960938 17.3671875 C-7.5675849 11.46025081 -3.87780628 5.68568457 0 0 Z " fill="#5D88CB" transform="translate(387,783)"/>
<path d="M0 0 C0.66 0.33 1.32 0.66 2 1 C1.54109375 1.70125 1.0821875 2.4025 0.609375 3.125 C-0.00421875 4.07375 -0.6178125 5.0225 -1.25 6 C-1.85328125 6.928125 -2.4565625 7.85625 -3.078125 8.8125 C-4.48024103 11.13796073 -5.7174736 13.38436097 -6.90625 15.8125 C-9.1278956 20.34647061 -11.66564784 24.66520002 -14.25 29 C-14.93835938 30.16208984 -14.93835938 30.16208984 -15.640625 31.34765625 C-16.75799878 33.2332245 -17.8778143 35.11729302 -19 37 C-20 34 -20 34 -19.03125 31.72265625 C-18.5259375 30.84480469 -18.020625 29.96695313 -17.5 29.0625 C-16.94183594 28.08410156 -16.38367188 27.10570312 -15.80859375 26.09765625 C-15.21175781 25.07542969 -14.61492187 24.05320312 -14 23 C-13.43410156 22.00871094 -12.86820312 21.01742187 -12.28515625 19.99609375 C-8.38089714 13.20569298 -4.25751081 6.57390727 0 0 Z " fill="#5A81C7" transform="translate(279,765)"/>
<path d="M0 0 C0.66 0 1.32 0 2 0 C0.49539438 5.3291618 -1.97412589 9.67642489 -4.8125 14.375 C-5.23853516 15.09171875 -5.66457031 15.8084375 -6.10351562 16.546875 C-9.00252997 21.40634231 -11.98409754 26.21236593 -15 31 C-15.66 30.67 -16.32 30.34 -17 30 C-13.23953986 22.90673989 -9.24665141 15.98401687 -5.07250977 9.12866211 C-3.25681918 6.13841574 -1.49199542 3.16652218 0 0 Z " fill="#5D87CB" transform="translate(336,869)"/>
<path d="M0 0 C0.66 0 1.32 0 2 0 C0.47396873 5.42301506 -2.07017497 9.89207473 -4.9375 14.6875 C-5.60168945 15.82541992 -5.60168945 15.82541992 -6.27929688 16.98632812 C-8.28557726 20.37398188 -10.10771235 23.2940077 -13 26 C-12.48832997 20.74755054 -9.75374872 16.83484188 -7.0625 12.4375 C-6.1564713 10.93684992 -5.25148763 9.43556829 -4.34765625 7.93359375 C-3.94554932 7.27415771 -3.54344238 6.61472168 -3.12915039 5.93530273 C-1.99653289 3.99405756 -0.98287139 2.0205811 0 0 Z " fill="#5D88CB" transform="translate(365,819)"/>
<path d="M0 0 C0.66 0 1.32 0 2 0 C0.72631862 4.9673574 -1.59545043 8.53369695 -4.4765625 12.6796875 C-5.93274165 14.89756036 -7.1095346 17.10759514 -8.25 19.5 C-10 23 -10 23 -12 24 C-11.10365231 18.30677691 -8.44494576 14.09901177 -5.5625 9.1875 C-5.05912109 8.30384766 -4.55574219 7.42019531 -4.03710938 6.50976562 C-3.55177734 5.67509766 -3.06644531 4.84042969 -2.56640625 3.98046875 C-2.12240479 3.21629639 -1.67840332 2.45212402 -1.22094727 1.66479492 C-0.81803467 1.1154126 -0.41512207 0.56603027 0 0 Z " fill="#5E88CD" transform="translate(350,845)"/>
<path d="M0 0 C0 4.92509796 -2.89543303 8.7046716 -5.25 12.9375 C-5.74113281 13.84435547 -6.23226563 14.75121094 -6.73828125 15.68554688 C-7.22167969 16.56146484 -7.70507812 17.43738281 -8.203125 18.33984375 C-8.64301758 19.13769287 -9.08291016 19.93554199 -9.53613281 20.75756836 C-11.11440116 23.17524595 -12.8970858 25.0312605 -15 27 C-13.47937949 21.58762192 -10.93583016 17.15144495 -8.0625 12.375 C-7.61970703 11.62476563 -7.17691406 10.87453125 -6.72070312 10.1015625 C-4.63673914 6.59826686 -2.55496132 3.18737749 0 0 Z " fill="#5981C6" transform="translate(317,700)"/>
<path d="M0 0 C3.06977921 3.70036591 5.76885452 7.55144708 8.3125 11.625 C8.8703418 12.48351562 8.8703418 12.48351562 9.43945312 13.359375 C10.37518799 14.8579448 11.1966397 16.42649327 12 18 C11.67 18.99 11.34 19.98 11 21 C0 6.44117647 0 6.44117647 0 0 Z " fill="#618DCD" transform="translate(506,786)"/>
<path d="M0 0 C3.22269618 3.79817765 5.74520378 7.57391854 8 12 C7.67 12.66 7.34 13.32 7 14 C5.82508418 12.23462904 4.66031316 10.46250287 3.5 8.6875 C2.8503125 7.70136719 2.200625 6.71523438 1.53125 5.69921875 C0 3 0 3 0 0 Z " fill="#608ECE" transform="translate(498,772)"/>
<path d="M0 0 C0.33 0.66 0.66 1.32 1 2 C-0.14453125 4.56640625 -0.14453125 4.56640625 -1.8125 7.5625 C-2.35519531 8.55378906 -2.89789063 9.54507813 -3.45703125 10.56640625 C-5 13 -5 13 -7 14 C-5.53967505 8.68972746 -3.01679014 4.53669968 0 0 Z " fill="#5880C6" transform="translate(294,739)"/>
<path d="M0 0 C2.61885488 2.36944013 4.41866551 4.83733102 6 8 C5.67 8.99 5.34 9.98 5 11 C4.15504811 9.92570402 3.32445142 8.84010798 2.5 7.75 C2.0359375 7.14671875 1.571875 6.5434375 1.09375 5.921875 C0 4 0 4 0 0 Z " fill="#6190D0" transform="translate(520,810)"/>
<path d="M0 0 C1 3 1 3 0.00390625 5.04296875 C-0.47175781 5.75066406 -0.94742187 6.45835937 -1.4375 7.1875 C-1.91058594 7.90292969 -2.38367188 8.61835937 -2.87109375 9.35546875 C-3.24363281 9.89816406 -3.61617188 10.44085937 -4 11 C-4.66 10.67 -5.32 10.34 -6 10 C-5.18957164 8.51969728 -4.37659652 7.04078858 -3.5625 5.5625 C-2.88380859 4.32693359 -2.88380859 4.32693359 -2.19140625 3.06640625 C-1 1 -1 1 0 0 Z " fill="#5A82C6" transform="translate(286,753)"/>
<path d="M0 0 C2.94751667 2.74423966 5.22773678 5.36219655 7 9 C6.67 9.99 6.34 10.98 6 12 C4.99157547 10.56839732 3.99352109 9.12948547 3 7.6875 C2.1646875 6.48673828 2.1646875 6.48673828 1.3125 5.26171875 C0 3 0 3 0 0 Z " fill="#608CCC" transform="translate(482,745)"/>
<path d="M0 0 C0.33 0.99 0.66 1.98 1 3 C-0.21484375 5.26171875 -0.21484375 5.26171875 -1.9375 7.6875 C-2.50339844 8.49574219 -3.06929688 9.30398438 -3.65234375 10.13671875 C-4.09707031 10.75160156 -4.54179687 11.36648438 -5 12 C-5 8.83317502 -4.48781492 7.62418394 -3.0625 4.875 C-2.70285156 4.17117188 -2.34320313 3.46734375 -1.97265625 2.7421875 C-1 1 -1 1 0 0 Z " fill="#5980C4" transform="translate(301,727)"/>
<path d="M0 0 C3.29078593 2.79716804 5.06305458 6.19528578 7 10 C6.67 10.66 6.34 11.32 6 12 C4.98829382 10.75945552 3.99102203 9.5071298 3 8.25 C2.443125 7.55390625 1.88625 6.8578125 1.3125 6.140625 C0 4 0 4 0 0 Z " fill="#5E8DCD" transform="translate(454,696)"/>
<path d="M0 0 C3.09592835 3.5087188 4.74194623 6.49197399 6 11 C3.66475218 8.74259377 1.81294927 6.7194239 0 4 C0 2.68 0 1.36 0 0 Z " fill="#608DCE" transform="translate(535,836)"/>
<path d="M0 0 C2.66735273 2.48952921 4.55746343 4.63408134 6 8 C5.01 8 4.02 8 3 8 C0 2.25 0 2.25 0 0 Z " fill="#618DCD" transform="translate(556,873)"/>
<path d="M0 0 C2.0245738 1.93254772 3.42105792 3.63158688 5 6 C4.67 6.99 4.34 7.98 4 9 C0 4.5 0 4.5 0 0 Z " fill="#628ECF" transform="translate(550,862)"/>
<path d="M0 0 C0.66 0.33 1.32 0.66 2 1 C0.68 3.31 -0.64 5.62 -2 8 C-2.66 8 -3.32 8 -4 8 C-2.25 2.25 -2.25 2.25 0 0 Z " fill="#5983C6" transform="translate(257,803)"/>
<path d="M0 0 C3.2542015 2.83430453 4.5206753 4.68607774 5 9 C1.7457985 6.16569547 0.4793247 4.31392226 0 0 Z " fill="#608BCA" transform="translate(447,684)"/>
</svg>
