<?xml version="1.0" encoding="UTF-8"?>
<svg version="1.1" xmlns="http://www.w3.org/2000/svg" width="200" height="200">
<path d="M0 0 C66 0 132 0 200 0 C200 66 200 132 200 200 C134 200 68 200 0 200 C0 134 0 68 0 0 Z " fill="#6B95B1" transform="translate(0,0)"/>
<path d="M0 0 C0.97126831 -0.00365067 1.94253662 -0.00730133 2.9432373 -0.01106262 C6.1483721 -0.01915791 9.35299981 -0.00556817 12.55810547 0.0090332 C14.78579712 0.00955185 17.01348923 0.00903398 19.24118042 0.00752258 C23.9066248 0.00761226 28.57189619 0.0180333 33.23730469 0.03613281 C39.22421571 0.058846 45.21087457 0.05935875 51.19781685 0.05261517 C55.79595185 0.04927802 60.39402911 0.05590005 64.99215317 0.0657444 C67.20021131 0.0695991 69.40827588 0.0707435 71.61633682 0.06915855 C74.69747474 0.06878872 77.77828604 0.08138447 80.859375 0.09765625 C82.2340242 0.09394012 82.2340242 0.09394012 83.63644409 0.09014893 C84.89391449 0.10077614 84.89391449 0.10077614 86.17678833 0.11161804 C86.90496325 0.11367091 87.63313816 0.11572378 88.38337898 0.11783886 C90.30029297 0.37231445 90.30029297 0.37231445 93.30029297 2.37231445 C93.30029297 3.03231445 93.30029297 3.69231445 93.30029297 4.37231445 C92.58744141 4.71262695 91.87458984 5.05293945 91.14013672 5.40356445 C78.33130728 11.8855562 72.76515239 21.05158637 68.30029297 34.37231445 C67.53668831 37.35530847 66.88405341 40.34928494 66.30029297 43.37231445 C88.59886112 43.2711002 88.59886112 43.2711002 107.91748047 33.54418945 C109.30029297 32.37231445 109.30029297 32.37231445 111.30029297 32.37231445 C109.90286251 35.53749444 108.2236287 37.6108078 105.80029297 40.05981445 C102.44207718 43.75107644 101.35790301 46.67251075 100.78466797 51.5871582 C100.62482422 52.17625977 100.46498047 52.76536133 100.30029297 53.37231445 C96.69890887 54.57277582 96.15062263 54.10519068 92.86279297 52.49731445 C88.51359365 50.39262578 84.80559927 49.29757977 79.97216797 49.0559082 C78.77333984 48.99306641 78.77333984 48.99306641 77.55029297 48.92895508 C76.72529297 48.88963867 75.90029297 48.85032227 75.05029297 48.80981445 C73.78958984 48.74503906 73.78958984 48.74503906 72.50341797 48.67895508 C70.43588626 48.57322902 68.36811016 48.4723015 66.30029297 48.37231445 C67.31601016 59.33296418 68.66107694 70.54355585 75.73779297 79.43481445 C78.5245217 81.54185325 81.37313975 83.46626119 84.30029297 85.37231445 C84.30029297 85.70231445 84.30029297 86.03231445 84.30029297 86.37231445 C72.31291493 86.51151905 60.32573013 86.61803971 48.33770752 86.68318748 C42.77074573 86.71446015 37.20433816 86.75685956 31.63769531 86.82495117 C26.26248755 86.89028742 20.88781185 86.92605106 15.51223755 86.94157791 C13.46452461 86.95263857 11.41683982 86.97423799 9.36935425 87.00669479 C6.49413831 87.05044773 3.62110235 87.0562407 0.74560547 87.0534668 C-0.09525101 87.07503845 -0.93610748 87.09661011 -1.80244446 87.11883545 C-7.46055128 87.06002362 -10.66978885 85.56440533 -15.0864563 82.05149269 C-18.7065828 78.2834252 -18.9567573 74.97123197 -18.99023438 69.86303711 C-18.9969516 69.21860153 -19.00366882 68.57416595 -19.0105896 67.91020203 C-19.02954521 65.78551464 -19.03349252 63.66114357 -19.03564453 61.53637695 C-19.04207432 60.05430981 -19.04880282 58.57224394 -19.05581665 57.09017944 C-19.0677834 53.98497577 -19.07149812 50.8798833 -19.0703125 47.7746582 C-19.07010937 43.80447672 -19.09740661 39.83501159 -19.13185692 35.86499977 C-19.15414477 32.80397293 -19.15814947 29.74311795 -19.15709305 26.68201828 C-19.15944636 25.21884061 -19.16825479 23.75565801 -19.18375778 22.29256058 C-19.20345721 20.24133054 -19.19756649 18.1916381 -19.18554688 16.14038086 C-19.18839691 14.97552155 -19.19124695 13.81066223 -19.19418335 12.61050415 C-18.44387054 7.69691147 -16.27863127 4.73614744 -12.55593872 1.52058411 C-8.36379702 -0.16475154 -4.47842498 -0.03751917 0 0 Z " fill="#183651" transform="translate(53.69970703125,53.627685546875)"/>
<path d="M0 0 C-0.30269794 12.19047175 -5.13862615 26.62630802 -14.0625 35.3125 C-22.97301737 42.34711897 -34.98831591 43.16907146 -45.875 43.0625 C-46.75414062 43.05798828 -47.63328125 43.05347656 -48.5390625 43.04882812 C-50.69273803 43.03712337 -52.84637817 43.01919069 -55 43 C-54.59334159 36.8223672 -53.48714706 31.6408676 -50.9375 26 C-50.472229 24.9629895 -50.472229 24.9629895 -49.99755859 23.9050293 C-45.63339218 14.62000925 -39.5925432 7.9425663 -30 4 C-20.11894577 0.55177286 -10.38711661 -0.16753414 0 0 Z " fill="#CEFAFD" transform="translate(175,54)"/>
<path d="M0 0 C23.77346099 -0.69921944 23.77346099 -0.69921944 32.75 6.4375 C39.35951305 12.76575718 43.76186621 21.47513415 44.09765625 30.67578125 C44.08605469 31.54589844 44.07445312 32.41601562 44.0625 33.3125 C44.05347656 34.19550781 44.04445312 35.07851562 44.03515625 35.98828125 C44.02355469 36.65214844 44.01195312 37.31601563 44 38 C35.03263554 41.2608598 25.95117128 41.21346314 17.25 37.18359375 C16.5075 36.79300781 15.765 36.40242188 15 36 C14.34 35.66097656 13.68 35.32195312 13 34.97265625 C6.04927718 30.76327454 3.02089934 22.57837253 1 15 C0.05888825 9.91799653 -0.03193237 5.1411113 0 0 Z " fill="#A5D7AC" transform="translate(120,102)"/>
<path d="M0 0 C0.33 0 0.66 0 1 0 C1.88317757 10.2546729 1.88317757 10.2546729 0.015625 13.9453125 C-2.28394779 16.20612845 -4.45024606 16.98691062 -7.625 17.0625 C-10.12462773 16.83526112 -12.53972217 16.49108313 -15 16 C-15.33 16.66 -15.66 17.32 -16 18 C-16.66 17.67 -17.32 17.34 -18 17 C-21.59287034 16.63330624 -25.20500018 16.53154754 -28.8125 16.375 C-29.81087891 16.3234375 -30.80925781 16.271875 -31.83789062 16.21875 C-32.80533203 16.17492187 -33.77277344 16.13109375 -34.76953125 16.0859375 C-35.65229736 16.0451709 -36.53506348 16.0044043 -37.44458008 15.96240234 C-40.01049193 15.92068645 -40.01049193 15.92068645 -42.5144043 16.51586914 C-45.18797159 17.03661209 -47.29714563 16.9447079 -50 16.66015625 C-50.95898193 16.56661865 -51.91796387 16.47308105 -52.90600586 16.37670898 C-53.92702393 16.27302002 -54.94804199 16.16933105 -56 16.0625 C-64.00295605 15.31576773 -71.89940388 14.84806256 -79.9375 14.9375 C-93.12684333 15.07510853 -106.01815509 14.57635843 -119 12 C-119 11.67 -119 11.34 -119 11 C-106.84769344 10.82288638 -94.6952905 10.65694088 -82.54263878 10.50522423 C-76.89959016 10.43442467 -71.25664679 10.35978914 -65.61376953 10.27636719 C-60.16739369 10.1959917 -54.72097233 10.12571856 -49.2743721 10.06242752 C-47.19713163 10.03651794 -45.11993316 10.00697764 -43.04279709 9.97373581 C-40.13191237 9.92777306 -37.22114544 9.89475911 -34.31005859 9.86474609 C-33.45266083 9.8482048 -32.59526306 9.83166351 -31.71188354 9.81462097 C-27.0280458 9.78142047 -23.42836271 10.28890129 -19 12 C-12.6288829 12.49525153 -6.28140769 12.14207413 0 11 C0 7.37 0 3.74 0 0 Z " fill="#597995" transform="translate(164,129)"/>
<path d="M0 0 C4.78123252 0.45857596 7.32211573 4.14533654 10.55029297 7.4440918 C11.25154297 8.11762695 11.95279297 8.79116211 12.67529297 9.48510742 C13.33271484 10.14575195 13.99013672 10.80639648 14.66748047 11.48706055 C15.26931152 12.08929443 15.87114258 12.69152832 16.49121094 13.31201172 C17.67529297 15.2565918 17.67529297 15.2565918 17.54980469 17.77026367 C16.07225254 21.97109871 13.04960907 24.49853417 9.92529297 27.5690918 C9.30396484 28.21426758 8.68263672 28.85944336 8.04248047 29.52416992 C3.39758935 34.15436202 3.39758935 34.15436202 -0.27783203 34.67456055 C-0.95330078 34.53663086 -1.62876953 34.39870117 -2.32470703 34.2565918 C-3.16455078 32.11987305 -3.16455078 32.11987305 -3.32470703 29.2565918 C-1.55997485 27.04395805 0.04256269 25.31906457 2.11279297 23.4440918 C2.64195313 22.94200195 3.17111328 22.43991211 3.71630859 21.92260742 C5.0229026 20.68664011 6.3474536 19.46970585 7.67529297 18.2565918 C5.80771093 13.64920533 2.37907569 11.37331532 -1.42626953 8.35424805 C-3.32470703 6.2565918 -3.32470703 6.2565918 -3.66064453 3.56518555 C-3.21090479 0.4745322 -3.10985188 0.34325292 0 0 Z " fill="#C2EDF0" transform="translate(60.32470703125,75.743408203125)"/>
<path d="M0 0 C0.33 0 0.66 0 1 0 C1.87844555 10.19972887 1.87844555 10.19972887 0.05078125 13.9453125 C-2.31928047 16.32216523 -4.18475068 16.95722457 -7.53125 17.1328125 C-11.76523881 16.83548183 -15.64153871 16.10172043 -19.73046875 14.94140625 C-26.53986005 13.40736415 -33.55955463 13.85726852 -40.496521 13.96337891 C-56.44715514 14.19670608 -72.1252166 13.72263162 -88 12 C-88 11.67 -88 11.34 -88 11 C-79.88965803 10.82263331 -71.77919577 10.65670758 -63.66833305 10.50522423 C-59.90179443 10.43452193 -56.13541741 10.35993948 -52.36914062 10.27636719 C-48.7318073 10.19580093 -45.09440563 10.12558699 -41.45672989 10.06242752 C-40.07165336 10.03658255 -38.68664021 10.00706135 -37.30172348 9.97373581 C-35.35614294 9.92755836 -33.41023492 9.89587731 -31.46435547 9.86474609 C-30.35849091 9.84253998 -29.25262634 9.82033386 -28.11325073 9.79745483 C-24.77048228 10.01493221 -22.13745349 10.8652262 -19 12 C-12.6288829 12.49525153 -6.28140769 12.14207413 0 11 C0 7.37 0 3.74 0 0 Z " fill="#4E6D88" transform="translate(164,129)"/>
<path d="M0 0 C6.27 0 12.54 0 19 0 C19.33 1.65 19.66 3.3 20 5 C17.37276176 7.62723824 15.45788327 7.26115971 11.87890625 7.2734375 C11.09386719 7.26570313 10.30882813 7.25796875 9.5 7.25 C8.32244141 7.26160156 8.32244141 7.26160156 7.12109375 7.2734375 C1.25330787 7.25330787 1.25330787 7.25330787 -1 5 C-0.67 3.35 -0.34 1.7 0 0 Z " fill="#BDE8EB" transform="translate(86,105)"/>
<path d="M0 0 C1.01118896 0.09676025 2.02237793 0.19352051 3.06420898 0.29321289 C4.14903564 0.40528076 5.2338623 0.51734863 6.3515625 0.6328125 C15.56877886 1.49086367 24.64221217 1.95476441 33.89794922 1.77099609 C39.65883431 1.6731942 45.25574337 2.07505616 50.9765625 2.7578125 C50.9765625 3.4178125 50.9765625 4.0778125 50.9765625 4.7578125 C43.377463 4.66545964 35.77868034 4.55814251 28.17993164 4.44042969 C25.59501945 4.40215151 23.01005421 4.36729664 20.42504883 4.3359375 C16.70895427 4.29026244 12.99322461 4.2322708 9.27734375 4.171875 C7.54427727 4.15454819 7.54427727 4.15454819 5.77619934 4.13687134 C4.15508492 4.1070668 4.15508492 4.1070668 2.5012207 4.07666016 C1.07891899 4.05667465 1.07891899 4.05667465 -0.37211609 4.0362854 C-3.22727793 3.73640279 -5.42048795 2.94176736 -8.0234375 1.7578125 C-4.60445876 -0.52150666 -3.91982924 -0.41146602 0 0 Z " fill="#6486A2" transform="translate(54.0234375,141.2421875)"/>
<path d="M0 0 C0.66 0 1.32 0 2 0 C0.60256954 3.16517999 -1.07666427 5.23849334 -3.5 7.6875 C-7.23784308 11.81389226 -8.38044153 15.53777021 -9 21 C-9.99 21 -10.98 21 -12 21 C-12.10211943 16.2259166 -12.02936798 11.67549772 -11 7 C-9.05539111 5.08591188 -7.59938439 4.45516542 -5.0078125 3.67578125 C-2.671782 2.88952974 -1.68649234 1.74913348 0 0 Z " fill="#436780" transform="translate(163,86)"/>
<path d="M0 0 C0.33 0 0.66 0 1 0 C1.92017937 10.68430493 1.92017937 10.68430493 -0.3359375 13.91015625 C-2 15.25 -2 15.25 -5 17 C-5.66 16.34 -6.32 15.68 -7 15 C-7 14.01 -7 13.02 -7 12 C-3.535 11.505 -3.535 11.505 0 11 C0 7.37 0 3.74 0 0 Z " fill="#577D8F" transform="translate(164,129)"/>
<path d="M0 0 C0.33 0 0.66 0 1 0 C1.144375 1.093125 1.28875 2.18625 1.4375 3.3125 C1.88288104 6.93122987 1.88288104 6.93122987 3 10 C2.0625 12.1875 2.0625 12.1875 1 14 C0.34 13.67 -0.32 13.34 -1 13 C-0.67 8.71 -0.34 4.42 0 0 Z " fill="#3A5B74" transform="translate(152,94)"/>
</svg>
