<?xml version="1.0" encoding="UTF-8"?>
<svg version="1.1" xmlns="http://www.w3.org/2000/svg" width="48" height="48">
<path d="M0 0 C15.84 0 31.68 0 48 0 C48 15.84 48 31.68 48 48 C32.16 48 16.32 48 0 48 C0 32.16 0 16.32 0 0 Z " fill="#235779" transform="translate(0,0)"/>
<path d="M0 0 C3.8197907 2.44272847 6.35083526 5.20302331 8.15625 9.37890625 C8.66393124 13.11185651 8.67447373 16.64638347 8.15625 20.37890625 C7.15625 21.37890625 7.15625 21.37890625 4.65625 21.50390625 C2.15625 21.37890625 2.15625 21.37890625 1.15625 20.37890625 C0.66146375 17.86899054 0.25658389 15.35007939 -0.1484375 12.82421875 C-0.91446884 10.13019843 -1.68166048 9.10640491 -3.84375 7.37890625 C-7.33577465 5.63289393 -11.03357279 5.82051821 -14.84375 6.37890625 C-18.09375 8.12890625 -18.09375 8.12890625 -19.84375 11.37890625 C-20.64773232 16.18569414 -20.36939223 20.1541956 -17.84375 24.37890625 C-15.25868051 26.2679955 -12.8257421 26.54681833 -9.71875 26.87890625 C-5.84375 27.37890625 -5.84375 27.37890625 -3.84375 29.37890625 C-4.37946429 32.91462054 -4.37946429 32.91462054 -5.84375 34.37890625 C-11.48050434 35.16151362 -16.46992923 35.22762911 -21.28125 31.94140625 C-26.3255908 27.54961877 -28.42839377 22.33831938 -29.34375 15.81640625 C-28.5025006 10.0328166 -26.3365829 5.39618839 -21.90625 1.50390625 C-14.57374206 -3.5839564 -8.02365887 -3.94313373 0 0 Z " fill="#F4F6F8" transform="translate(33.84375,7.62109375)"/>
<path d="M0 0 C3.25343361 1.63845358 5.43034013 3.61727684 8.01953125 6.17578125 C8.90253906 7.02785156 9.78554688 7.87992188 10.6953125 8.7578125 C12.70703125 11.36328125 12.70703125 11.36328125 13 14.1875 C12.90332031 14.90550781 12.80664062 15.62351562 12.70703125 16.36328125 C10.45703125 17.0546875 10.45703125 17.0546875 7.70703125 17.36328125 C4.61268794 15.52894516 2.2205429 12.92230921 -0.29296875 10.36328125 C-0.84082031 9.81414063 -1.38867188 9.265 -1.953125 8.69921875 C-5.31155008 5.05079039 -5.31155008 5.05079039 -5.23046875 2.05078125 C-3.77372714 -0.57135365 -2.86295554 -0.79499447 0 0 Z " fill="#EDF1F4" transform="translate(27.29296875,22.63671875)"/>
</svg>
