<?xml version="1.0" encoding="UTF-8"?>
<svg version="1.1" xmlns="http://www.w3.org/2000/svg" width="200" height="200">
<path d="M0 0 C0.03738281 -0.61488281 0.07476562 -1.22976562 0.11328125 -1.86328125 C0.21189453 -3.07564453 0.21189453 -3.07564453 0.3125 -4.3125 C0.37050781 -5.11300781 0.42851562 -5.91351563 0.48828125 -6.73828125 C1.09268985 -9.40967498 1.88641018 -10.30809964 4 -12 C6.81959587 -13.48399783 8.49405914 -14.0352982 11.6875 -13.8125 C14 -13 14 -13 16 -10 C17.17337671 -1.52752995 15.16783748 7.59574099 14 16 C14.99 16 15.98 16 17 16 C17.08894531 16.53367188 17.17789063 17.06734375 17.26953125 17.6171875 C18.24736265 20.8069049 19.92849822 23.29049428 21.6875 26.125 C33.72602793 46.45528803 36.96556884 70.98649827 32 94 C27.71429788 110.55427895 20.45877468 124.19807224 9 137 C8.46117187 137.62132812 7.92234375 138.24265625 7.3671875 138.8828125 C-7.66284286 155.12128752 -30.25538944 164.85972694 -52.15600586 166.12451172 C-77.69800034 167.02939919 -101.58936829 160.41112131 -121 143 C-122.35931641 141.78183594 -122.35931641 141.78183594 -123.74609375 140.5390625 C-140.60183881 124.59507064 -151.41371335 101.81965585 -152.203125 78.50390625 C-152.62051055 52.34862558 -145.51476472 29.8617432 -128 10 C-127.34 9.34 -126.68 8.68 -126 8 C-125.68795448 5.99576395 -125.68795448 5.99576395 -125.625 3.75 C-125.21754003 -0.76844001 -123.93952665 -3.45527669 -121 -7 C-117.41004025 -9.3933065 -114.82260423 -9.2022404 -110.6875 -9.25 C-103.41553344 -9.50203554 -97.9962185 -11.36119086 -91.38671875 -14.50390625 C-60.58752996 -28.10954559 -26.34400919 -17.74671278 0 0 Z M-112 -7 C-112.33 -6.01 -112.66 -5.02 -113 -4 C-111.68 -4.66 -110.36 -5.32 -109 -6 C-109.99 -6.33 -110.98 -6.66 -112 -7 Z " fill="#FFFEFB" transform="translate(159,27)"/>
<path d="M0 0 C0.33 0 0.66 0 1 0 C4.19721042 16.52813235 6.48477873 33.12472178 5 50 C4.67 50.33 4.34 50.66 4 51 C4.66 51.33 5.32 51.66 6 52 C6.05607422 53.76150391 6.05607422 53.76150391 6.11328125 55.55859375 C6.71037336 71.23226162 8.94800784 85.58348153 13.875 100.4765625 C14.77239371 103.28714973 15.49506031 105.9871373 16.0625 108.875 C18.29354317 119.42723121 22.49545119 126.41797793 31.37890625 132.67578125 C35.43370302 135.42075173 35.43370302 135.42075173 40.078125 135.5546875 C46.66956864 130.22258471 46.79520685 118.37243079 48.19335938 110.6328125 C48.39896484 109.5396875 48.60457031 108.4465625 48.81640625 107.3203125 C49.08626343 105.82395264 49.08626343 105.82395264 49.36157227 104.29736328 C49.67759399 103.16016846 49.67759399 103.16016846 50 102 C52.6666419 100.66667905 54.16680303 101.32897967 57 102 C55.35 101.01 53.7 100.02 52 99 C52.46715456 93.20728347 53.41191668 88.0480583 55.1953125 82.51953125 C55.71106239 80.90468331 56.18883832 79.27691655 56.6171875 77.63671875 C58.66984893 69.89489077 62.29052631 63.05308149 66 56 C66.99 56 67.98 56 69 56 C69.17015625 56.96679688 69.3403125 57.93359375 69.515625 58.9296875 C71.07643626 67.638927 71.07643626 67.638927 74.0625 75.9375 C75.87512968 80.05284071 76.32861446 83.6481329 76.6875 88.125 C77.43950595 96.75726998 80.51378422 104.31406138 83.67480469 112.32202148 C86.18097249 118.69704758 88.2055188 124.76733402 89.46484375 131.51171875 C90.03525198 134.16390884 90.92871409 136.51228587 92 139 C95.56084603 139.37738117 95.56084603 139.37738117 98.5546875 137.70703125 C102.26412971 132.38431092 105.31314962 126.82514739 108.3203125 121.078125 C110.29278384 117.4634566 112.49656216 114.26205537 115 111 C114.34 110.67 113.68 110.34 113 110 C113.66 110 114.32 110 115 110 C115.33 109.01 115.66 108.02 116 107 C118.0625 106.3125 118.0625 106.3125 120 106 C120 104.68 120 103.36 120 102 C120.99 102 121.98 102 123 102 C123 101.34 123 100.68 123 100 C121.68 99.67 120.36 99.34 119 99 C119.33 97.35 119.66 95.7 120 94 C121.32 93.67 122.64 93.34 124 93 C123.67 92.01 123.34 91.02 123 90 C123.9375 87.8125 123.9375 87.8125 125 86 C123.68 85.67 122.36 85.34 121 85 C121.40500122 81.62498982 121.82245652 78.50087469 122.9609375 75.2890625 C124.19765742 71.37433252 124.70707512 67.5577161 125.25 63.5 C126.47167101 55.04349808 128.4714291 46.94152999 130.84277344 38.73828125 C132.092185 34.40655683 133.20233976 30.13516529 134.01953125 25.69921875 C134.74054643 21.91714275 135.77462533 18.78358492 137.625 15.375 C138.29402344 14.11816406 138.29402344 14.11816406 138.9765625 12.8359375 C139.31429687 12.23007812 139.65203125 11.62421875 140 11 C140.99 11 141.98 11 143 11 C157.34231697 28.85908979 161.38977129 53.11675835 159.75390625 75.34375 C157.46827621 95.89085712 148.7136032 113.67894148 135 129 C134.46117187 129.62132812 133.92234375 130.24265625 133.3671875 130.8828125 C118.33715714 147.12128752 95.74461056 156.85972694 73.84399414 158.12451172 C48.30199966 159.02939919 24.41063171 152.41112131 5 135 C3.64068359 133.78183594 3.64068359 133.78183594 2.25390625 132.5390625 C-14.60183881 116.59507064 -25.41371335 93.81965585 -26.203125 70.50390625 C-26.62051055 44.34862558 -19.51476472 21.8617432 -2 2 C-1.34 1.34 -0.68 0.68 0 0 Z " fill="#FFBC02" transform="translate(33,35)"/>
<path d="M0 0 C0.56493164 0.36867188 1.12986328 0.73734375 1.71191406 1.1171875 C4.74287224 3.30275218 5.9148983 4.52274049 6.578125 8.2421875 C5.82715784 16.55646676 4.01302847 23.36457605 0.62890625 31.06640625 C-1.81905842 36.73285678 -3.35516291 42.68169627 -5.01953125 48.61328125 C-6 52 -6 52 -7 54 C-12.28 54 -17.56 54 -23 54 C-23 54.66 -23 55.32 -23 56 C-18.71 56 -14.42 56 -10 56 C-8.65683864 60.02948407 -9.75861976 61.77762912 -11.1875 65.75 C-13.48649506 72.28651557 -15.34160847 78.83870321 -17.0078125 85.5625 C-18.06724782 89.23298457 -19.42978876 92.52247003 -21 96 C-22.32 96 -23.64 96 -25 96 C-29.74112406 91.19824775 -32.21758271 84.47201583 -34.6484375 78.30078125 C-35.8798971 75.29331488 -37.2250746 72.39142129 -38.63989258 69.46875 C-41.75438713 63.03372129 -44.20871169 56.73562551 -46.078125 49.8046875 C-47.03677798 46.88810767 -48.39631393 44.60373749 -50 42 C-50 41.34 -50 40.68 -50 40 C-54.10273875 39.59777071 -56.2906253 39.51633543 -59.75 41.875 C-62.18894607 45.2624251 -63.01553822 47.87788303 -64.05859375 51.859375 C-65.25755488 55.85922872 -66.82412189 59.65196904 -68.4375 63.5 C-68.7456665 64.23524902 -69.05383301 64.97049805 -69.37133789 65.72802734 C-69.97377503 67.16304254 -70.57686265 68.59778487 -71.18066406 70.03222656 C-72.57080089 73.3708746 -73.87642096 76.74237843 -75.17578125 80.1171875 C-76 82 -76 82 -78 85 C-79.87109375 84.77612305 -79.87109375 84.77612305 -82 84 C-86.75840009 76.37073857 -87.44664722 65.87209606 -88.65771484 57.11889648 C-89.00240971 54.67038281 -89.38518677 52.22967469 -89.76953125 49.78710938 C-89.99452007 48.2164782 -90.2172581 46.64552259 -90.4375 45.07421875 C-90.55496582 44.35223801 -90.67243164 43.63025726 -90.79345703 42.88639832 C-91.28121224 39.06893348 -91.13596378 36.66773142 -89.03515625 33.49536133 C-88.36355469 32.67189209 -87.69195312 31.84842285 -87 31 C-88.98 31 -90.96 31 -93 31 C-94.49821059 27.62902617 -95 25.79557881 -95 22 C-94.01 22 -93.02 22 -92 22 C-92 21.34 -92 20.68 -92 20 C-93.65 20 -95.3 20 -97 20 C-97.31453125 19.20335937 -97.6290625 18.40671875 -97.953125 17.5859375 C-100.6269987 10.72927516 -100.6269987 10.72927516 -104.375 4.4375 C-105.179375 3.2309375 -105.179375 3.2309375 -106 2 C-105 -1 -105 -1 -103.41015625 -2.17578125 C-100.03216466 -3.33097773 -96.99845795 -3.22578987 -93.4375 -3.1875 C-92.42913086 -3.1865332 -92.42913086 -3.1865332 -91.40039062 -3.18554688 C-88.33586829 -3.1581579 -85.9272839 -2.9757613 -83 -2 C-82.67 -2.33 -82.34 -2.66 -82 -3 C-86.95 -3.33 -91.9 -3.66 -97 -4 C-73.57457841 -27.42542159 -23.98946188 -16.12763046 0 0 Z " fill="#FFBD04" transform="translate(153,23)"/>
<path d="M0 0 C1.4540625 0.0309375 1.4540625 0.0309375 2.9375 0.0625 C2.23808404 3.20987182 1.17671302 6.08838876 -0.0625 9.0625 C-0.7225 9.0625 -1.3825 9.0625 -2.0625 9.0625 C-3.31914978 6.15649739 -4.0625 4.26645416 -4.0625 1.0625 C-3.0625 0.0625 -3.0625 0.0625 0 0 Z " fill="#FFFFFF" transform="translate(5.0625,20.9375)"/>
<path d="M0 0 C-0.54723683 3.37462715 -1.0549 5.08235 -3 8 C-3.66 8 -4.32 8 -5 8 C-5.33 6.35 -5.66 4.7 -6 3 C-2.25 0 -2.25 0 0 0 Z " fill="#FFFFFF" transform="translate(30,11)"/>
<path d="M0 0 C-1.28650706 0.69710731 -2.57940665 1.38242876 -3.875 2.0625 C-4.95394531 2.63677734 -4.95394531 2.63677734 -6.0546875 3.22265625 C-6.69664063 3.47917969 -7.33859375 3.73570313 -8 4 C-8.66 3.67 -9.32 3.34 -10 3 C-6.81859267 -0.48439851 -4.56758339 -1.41752588 0 0 Z " fill="#FFF2CF" transform="translate(89,43)"/>
<path d="M0 0 C5.28 0 10.56 0 16 0 C12 3 12 3 8.984375 2.85546875 C7.91703125 2.63503906 6.8496875 2.41460938 5.75 2.1875 C4.67234375 1.97480469 3.5946875 1.76210938 2.484375 1.54296875 C1.66453125 1.36378906 0.8446875 1.18460938 0 1 C0 0.67 0 0.34 0 0 Z " fill="#FFF7E2" transform="translate(58,19)"/>
<path d="M0 0 C0.66 0 1.32 0 2 0 C1.67 0.99 1.34 1.98 1 3 C0.67 2.01 0.34 1.02 0 0 Z " fill="#FFFFFF" transform="translate(7,41)"/>
<path d="M0 0 C0.99 0.33 1.98 0.66 3 1 C2.01 1.33 1.02 1.66 0 2 C0 1.34 0 0.68 0 0 Z " fill="#FFFFFF" transform="translate(148,8)"/>
</svg>
